<svg xmlns="http://www.w3.org/2000/svg" xmlns:xlink="http://www.w3.org/1999/xlink" xmlns:lucid="lucid" width="1931.36" height="1640"><g transform="translate(-600 -900)" lucid:page-tab-id="M0TPtWyzCFO7"><path d="M0 0h3791.47v2926.35H0z" fill="#fff"/><path d="M1068.87 1981v9.92m0 9.9v19.85m0 9.9v19.85m0 9.9v19.85m0 9.9v19.85m0 9.9v19.85m0 9.9v19.85m0 9.9v19.85m0 9.9v19.85m0 9.9v19.85m0 9.9v19.85m0 9.9v19.85m0 9.9v19.85m0 9.9v19.85m0 9.9v9.93" stroke="#000" fill="none"/><path d="M1069.37 1981h-1v-.5h1M1069.37 2398h-1v-.5h1"/><path d="M1064.98 1020.5l.1 10.12m.08 10.13l.2 20.24m.1 10.12l.18 20.24m.1 10.13l.18 20.23m.1 10.13l.18 20.24m.1 10.12l.18 20.25m.1 10.12l.2 20.24m.08 10.12l.2 20.25m.08 10.13l.2 20.25m.1 10.12l.17 20.25m.1 10.12l.2 20.25m.1 10.12l.18 20.25m.1 10.1l.18 20.26m.1 10.12l.18 20.25m.1 10.12l.2 20.25m.08 10.12l.2 20.25m.08 10.12l.2 20.24m.1 10.12l.17 20.25m.1 10.13l.2 20.25m.08 10.12l.2 20.24m.08 10.13l.2 20.24m.1 10.14l.17 20.24m.1 10.13l.2 20.25m.08 10.13l.1 10.12" stroke="#000" fill="none"/><path d="M1065.48 1020.5l-1 .02v-.52h1"/><path d="M1071.48 1719v.5M2092.06 1020.5v9.98m0 9.98v19.95m0 10v19.95m0 9.98v19.95m0 9.98v19.96m0 9.98v19.95m0 9.98v19.96m0 9.97v19.95m0 9.98v19.96m0 9.97v19.96m0 9.97v19.96m0 9.97v19.96m0 9.98v19.96m0 9.97v19.96m0 9.98v19.97m0 9.97v19.96m0 9.98v19.95m0 9.98v19.97m0 9.98v19.95m0 9.98v19.96m0 9.98v19.95m0 9.98v19.96m0 10v19.94m0 9.98v19.96m0 9.98v19.95m0 10v19.95m0 9.98v19.95m0 9.98v19.96m0 9.98v19.95m0 9.98v19.96m0 9.97v19.95m0 9.98v19.96m0 9.97v19.96m0 9.97v19.96m0 9.97v19.96m0 9.98v19.96m0 9.97v19.96m0 9.98v19.97m0 9.97V2168m0 9.98v19.95m0 9.98v19.97m0 9.98v19.95m0 9.98v19.96m0 9.98v19.95m0 9.98v19.96m0 10v19.94m0 9.98v9.98" stroke="#000" fill="none"/><path d="M2092.56 1020.5h-1v-.5h1M2092.56 2398h-1v-.5h1"/><path d="M2434.42 1020.5v9.98m0 9.98v19.95m0 10v19.95m0 9.98v19.95m0 9.98v19.96m0 9.98v19.95m0 9.98v19.96m0 9.97v19.95m0 9.98v19.96m0 9.97v19.96m0 9.97v19.96m0 9.97v19.96m0 9.98v19.96m0 9.97v19.96m0 9.98v19.97m0 9.97v19.96m0 9.98v19.95m0 9.98v19.97m0 9.98v19.95m0 9.98v19.96m0 9.98v19.95m0 9.98v19.96m0 10v19.94m0 9.98v19.96m0 9.98v19.95m0 10v19.95m0 9.98v19.95m0 9.98v19.96m0 9.98v19.95m0 9.98v19.96m0 9.97v19.95m0 9.98v19.96m0 9.97v19.96m0 9.97v19.96m0 9.97v19.96m0 9.98v19.96m0 9.97v19.96m0 9.98v19.97m0 9.97V2168m0 9.98v19.95m0 9.98v19.97m0 9.98v19.95m0 9.98v19.96m0 9.98v19.95m0 9.98v19.96m0 10v19.94m0 9.98v9.98" stroke="#000" fill="none"/><path d="M2434.92 1020.5h-1v-.5h1M2434.92 2398h-1v-.5h1"/><path d="M722.6 1015.95v10.02m0 10.02v20.04m0 10.02v20.05m0 10.03v20.05m0 10.02v20.05m0 10.02v20.05m0 10.02v20.05m0 10v20.06m0 10.02v20.05m0 10.02v20.04m0 10.02v20.04m0 10.03v20.03m0 10.03v20.04m0 10.03v20.04m0 10.03v20.04m0 10.02V1477m0 10.03v20.05m0 10.02v20.05m0 10.02v20.05m0 10.02v20.05m0 10v20.06m0 10.02v20.05m0 10.02v20.05m0 10.02v20.05m0 10.02v20.04m0 10.02v20.04m0 10.03v20.04m0 10.03v20.04m0 10.03v20.04m0 10.04v20.04m0 10.03v20.05m0 10.02v20.05m0 10.02v20.05m0 10v20.06m0 10.02v20.05m0 10.02v20.05m0 10.02v20.05m0 10.02v20.04m0 10.02v20.05m0 10.03v20.05m0 10.02v20.05m0 10.02v20.04m0 10.04v20.04m0 10.03v20.05m0 10.03V2339M722.6 1015.96v-3.5" stroke="#000" fill="none"/><path d="M723.1 2339.56l-.47-.06h-.52v-.5h1"/><path d="M1407.33 1020.5v9.98m0 9.98v19.95m0 10v19.95m0 9.98v19.95m0 9.98v19.96m0 9.98v19.95m0 9.98v19.96m0 9.97v19.95m0 9.98v19.96m0 9.97v19.96m0 9.97v19.96m0 9.97v19.96m0 9.98v19.96m0 9.97v19.96m0 9.98v19.97m0 9.97v19.96m0 9.98v19.95m0 9.98v19.97m0 9.98v19.95m0 9.98v19.96m0 9.98v19.95m0 9.98v19.96m0 10v19.94m0 9.98v19.96m0 9.98v19.95m0 10v19.95m0 9.98v19.95m0 9.98v19.96m0 9.98v19.95m0 9.98v19.96m0 9.97v19.95m0 9.98v19.96m0 9.97v19.96m0 9.97v19.96m0 9.97v19.96m0 9.98v19.96m0 9.97v19.96m0 9.98v19.97m0 9.97V2168m0 9.98v19.95m0 9.98v19.97m0 9.98v19.95m0 9.98v19.96m0 9.98v19.95m0 9.98v19.96m0 10v19.94m0 9.98v9.98" stroke="#000" fill="none"/><path d="M1407.83 1020.5h-1v-.5h1M1407.83 2398h-1v-.5h1"/><path d="M988.04 928c0-4.42 3.58-8 8-8h137.86c4.42 0 8 3.58 8 8v84c0 4.42-3.58 8-8 8H996.04c-4.42 0-8-3.58-8-8z" stroke="#000" stroke-opacity="0" fill="#ffaf28"/><use xlink:href="#a" transform="matrix(1,0,0,1,996.0402495010472,928) translate(39.913580246913575 45.55555555555556)"/><path d="M2015.13 928c0-4.42 3.58-8 8-8H2161c4.4 0 8 3.58 8 8v84c0 4.42-3.6 8-8 8h-137.87c-4.42 0-8-3.58-8-8z" stroke="#000" stroke-opacity="0" fill="#99d2f2"/><use xlink:href="#b" transform="matrix(1,0,0,1,2023.1294434153076,928) translate(3.3950617283950635 34.888888888888886)"/><use xlink:href="#c" transform="matrix(1,0,0,1,2023.1294434153076,928) translate(33.96296296296297 34.888888888888886)"/><use xlink:href="#d" transform="matrix(1,0,0,1,2023.1294434153076,928) translate(78.35802469135804 34.888888888888886)"/><use xlink:href="#e" transform="matrix(1,0,0,1,2023.1294434153076,928) translate(29.592592592592588 56.22222222222222)"/><path d="M2357.5 928c0-4.42 3.57-8 8-8h137.86c4.4 0 8 3.58 8 8v84c0 4.42-3.6 8-8 8H2365.5c-4.43 0-8-3.58-8-8z" stroke="#000" stroke-opacity="0" fill="#99d5ca"/><use xlink:href="#b" transform="matrix(1,0,0,1,2365.4925080533944,928) translate(19.197530864197525 34.888888888888886)"/><use xlink:href="#c" transform="matrix(1,0,0,1,2365.4925080533944,928) translate(49.76543209876543 34.888888888888886)"/><use xlink:href="#f" transform="matrix(1,0,0,1,2365.4925080533944,928) translate(94.16049382716051 34.888888888888886)"/><use xlink:href="#e" transform="matrix(1,0,0,1,2365.4925080533944,928) translate(29.592592592592588 56.22222222222222)"/><path d="M742.36 939.75c0 10.9-8.84 19.75-19.75 19.75-10.9 0-19.74-8.84-19.74-19.75 0-10.9 8.84-19.75 19.75-19.75 10.92 0 19.76 8.84 19.76 19.75z" stroke="#333" fill="#fff"/><path d="M722.6 959.5v47.3c0 4.42 2.78 10.27 6.2 13.08l70.74 58.12m-76.93-63.2L645.7 1078m0-98.75h153.86" stroke="#333" fill="none"/><path d="M645.68 928c0-4.42 3.58-8 8-8h137.86c4.42 0 8 3.58 8 8v164c0 4.42-3.58 8-8 8H653.68c-4.42 0-8-3.58-8-8z" fill="none"/><use xlink:href="#g" transform="matrix(1,0,0,1,565.6771848629604,1078) translate(138.28395061728395 14.555555555555555)"/><path d="M1330.4 928c0-4.42 3.6-8 8-8h137.87c4.4 0 8 3.58 8 8v84c0 4.42-3.6 8-8 8H1338.4c-4.4 0-8-3.58-8-8z" stroke="#000" stroke-opacity="0" fill="#ff8f80"/><use xlink:href="#h" transform="matrix(1,0,0,1,1338.4033141391342,928) translate(6.382716049382708 34.888888888888886)"/><use xlink:href="#i" transform="matrix(1,0,0,1,1338.4033141391342,928) translate(69.49382716049382 34.888888888888886)"/><use xlink:href="#j" transform="matrix(1,0,0,1,1338.4033141391342,928) translate(80.30864197530865 34.888888888888886)"/><use xlink:href="#k" transform="matrix(1,0,0,1,1338.4033141391342,928) translate(40.456790123456784 56.22222222222222)"/><path d="M1522.9 1410.94H739v-1h783.9m544.97 1h-102.1v-1h102.1M2068.37 1410.94h-.5v-1h.5M738.5 1415.08l-14.27-4.64 14.26-4.63z"/><path d="M739 1415.77l-16.4-5.33 16.4-5.32m-13.15 5.32l12.14 3.95v-7.9"/><use xlink:href="#l" transform="matrix(1,0,0,1,1522.895547762206,1369.0443162559873) translate(123.64103515624998 14.4)"/><use xlink:href="#m" transform="matrix(1,0,0,1,1522.895547762206,1369.0443162559873) translate(176.64103515624998 14.4)"/><use xlink:href="#n" transform="matrix(1,0,0,1,1522.895547762206,1369.0443162559873) translate(218.54103515625 14.4)"/><use xlink:href="#o" transform="matrix(1,0,0,1,1522.895547762206,1369.0443162559873) translate(240.44103515625 14.4)"/><use xlink:href="#p" transform="matrix(1,0,0,1,1522.895547762206,1369.0443162559873) translate(86.66603515624999 36)"/><use xlink:href="#q" transform="matrix(1,0,0,1,1522.895547762206,1369.0443162559873) translate(91.66603515624999 36)"/><use xlink:href="#r" transform="matrix(1,0,0,1,1522.895547762206,1369.0443162559873) translate(132.56603515625 36)"/><use xlink:href="#s" transform="matrix(1,0,0,1,1522.895547762206,1369.0443162559873) translate(189.51603515624998 36)"/><use xlink:href="#n" transform="matrix(1,0,0,1,1522.895547762206,1369.0443162559873) translate(225.46603515625 36)"/><use xlink:href="#t" transform="matrix(1,0,0,1,1522.895547762206,1369.0443162559873) translate(247.36603515625 36)"/><use xlink:href="#u" transform="matrix(1,0,0,1,1522.895547762206,1369.0443162559873) translate(284.26603515625004 36)"/><use xlink:href="#v" transform="matrix(1,0,0,1,1522.895547762206,1369.0443162559873) translate(152.64103515624998 57.6)"/><use xlink:href="#w" transform="matrix(1,0,0,1,1522.895547762206,1369.0443162559873) translate(205.49103515625 57.6)"/><use xlink:href="#x" transform="matrix(1,0,0,1,1522.895547762206,1369.0443162559873) translate(258.34103515625 57.6)"/><use xlink:href="#y" transform="matrix(1,0,0,1,1522.895547762206,1369.0443162559873) translate(0.0049999999999954525 79.19648437500001)"/><path d="M702.6 1448c0-4.42 3.6-8 8-8h24c4.43 0 8 3.58 8 8v484c0 4.42-3.57 8-8 8h-24c-4.4 0-8-3.58-8-8z" stroke="#000" fill="#e5e5e5"/><path d="M620 1440h194.58l10.64 10.64v42.56H620z" stroke="#000" fill="#fff"/><path d="M814.58 1440.48v10.16h10.16" stroke="#000" fill="#fff"/><use xlink:href="#z" transform="matrix(1,0,0,1,625,1445) translate(38.64999999999999 25.4)"/><use xlink:href="#A" transform="matrix(1,0,0,1,625,1445) translate(81.55 25.4)"/><use xlink:href="#B" transform="matrix(1,0,0,1,625,1445) translate(130.45 25.4)"/><path d="M760.72 1540.5h-17.1v-1h17.1m271.27 1h-1.24v-1h1.23M743.62 1540.5h-.5v-1h.5M1046.75 1540l-14.26 4.64v-9.28z"/><path d="M1048.37 1540l-16.38 5.32v-10.64m1 9.27l12.13-3.95-12.14-3.95"/><use xlink:href="#C" transform="matrix(1,0,0,1,760.7182988787163,1520.3333333333333) translate(71.47141710069442 14.222222222222223)"/><use xlink:href="#D" transform="matrix(1,0,0,1,760.7182988787163,1520.3333333333333) translate(112.90351586612653 14.222222222222223)"/><use xlink:href="#E" transform="matrix(1,0,0,1,760.7182988787163,1520.3333333333333) translate(181.8911701871142 14.222222222222223)"/><use xlink:href="#F" transform="matrix(1,0,0,1,760.7182988787163,1520.3333333333333) translate(0.0049999999999954525 35.729817708333336)"/><path d="M1048.87 1508c0-4.42 3.58-8 8-8h24c4.42 0 8 3.58 8 8v464c0 4.42-3.58 8-8 8h-24c-4.42 0-8-3.58-8-8z" stroke="#000" fill="#e5e5e5"/><path d="M1126.62 1653.35h-20.86v-1h20.86m261.25 1h-36.75v-1h36.75M1388.37 1653.35h-.5v-1h.5M1105.26 1657.48l-14.27-4.63 14.26-4.64z"/><path d="M1105.76 1658.17l-16.4-5.32 16.4-5.33m-13.15 5.33l12.16 3.94v-7.9"/><use xlink:href="#G" transform="matrix(1,0,0,1,1126.6218258879287,1642.0472282535363) translate(0.0049999999999954525 14.4)"/><use xlink:href="#H" transform="matrix(1,0,0,1,1126.6218258879287,1642.0472282535363) translate(72.805 14.4)"/><use xlink:href="#I" transform="matrix(1,0,0,1,1126.6218258879287,1642.0472282535363) translate(157.60500000000002 14.4)"/><path d="M1132.9 1593.75h-43.03v-1h43.03m239.1 1h-27.15v-1H1372"/><path d="M1089.88 1593.75h-.5v-1h.5M1386.75 1593.25l-14.26 4.63v-9.27z"/><path d="M1388.37 1593.25l-16.38 5.32v-10.65m1 9.27l12.14-3.95-12.15-3.95"/><use xlink:href="#C" transform="matrix(1,0,0,1,1132.8965172459534,1582.579474950178) translate(0.0049999999999954525 14.222222222222223)"/><use xlink:href="#J" transform="matrix(1,0,0,1,1132.8965172459534,1582.579474950178) translate(41.4370987654321 14.222222222222223)"/><use xlink:href="#K" transform="matrix(1,0,0,1,1132.8965172459534,1582.579474950178) translate(112.44944444444445 14.222222222222223)"/><use xlink:href="#L" transform="matrix(1,0,0,1,1132.8965172459534,1582.579474950178) translate(140.99265432098767 14.222222222222223)"/><path d="M991.94 2406c0-4.42 3.58-8 8-8h137.86c4.42 0 8 3.58 8 8v84c0 4.42-3.58 8-8 8H999.94c-4.42 0-8-3.58-8-8z" stroke="#000" stroke-opacity="0" fill="#ffaf28"/><use xlink:href="#a" transform="matrix(1,0,0,1,999.9402935688853,2406) translate(39.913580246913575 45.55555555555556)"/><path d="M2015.13 2406c0-4.42 3.58-8 8-8H2161c4.4 0 8 3.58 8 8v86c0 4.42-3.6 8-8 8h-137.87c-4.42 0-8-3.58-8-8z" stroke="#000" stroke-opacity="0" fill="#83bbe5"/><use xlink:href="#b" transform="matrix(1,0,0,1,2023.1294434153076,2406) translate(3.3950617283950635 35.888888888888886)"/><use xlink:href="#c" transform="matrix(1,0,0,1,2023.1294434153076,2406) translate(33.96296296296297 35.888888888888886)"/><use xlink:href="#d" transform="matrix(1,0,0,1,2023.1294434153076,2406) translate(78.35802469135804 35.888888888888886)"/><use xlink:href="#e" transform="matrix(1,0,0,1,2023.1294434153076,2406) translate(29.592592592592588 57.22222222222222)"/><path d="M2357.5 2406c0-4.42 3.57-8 8-8h137.86c4.4 0 8 3.58 8 8v84c0 4.42-3.6 8-8 8H2365.5c-4.43 0-8-3.58-8-8z" stroke="#000" stroke-opacity="0" fill="#99d5ca"/><use xlink:href="#b" transform="matrix(1,0,0,1,2365.4925080533944,2406) translate(19.197530864197525 34.888888888888886)"/><use xlink:href="#c" transform="matrix(1,0,0,1,2365.4925080533944,2406) translate(49.76543209876543 34.888888888888886)"/><use xlink:href="#f" transform="matrix(1,0,0,1,2365.4925080533944,2406) translate(94.16049382716051 34.888888888888886)"/><use xlink:href="#e" transform="matrix(1,0,0,1,2365.4925080533944,2406) translate(29.592592592592588 56.22222222222222)"/><path d="M742.36 2359.75c0 10.9-8.84 19.75-19.75 19.75-10.9 0-19.74-8.84-19.74-19.75 0-10.9 8.84-19.75 19.75-19.75 10.92 0 19.76 8.84 19.76 19.75z" stroke="#333" fill="#fff"/><path d="M722.6 2379.5v47.3c0 4.42 2.78 10.27 6.2 13.08l70.74 58.12m-76.93-63.2L645.7 2498m0-98.75h153.86" stroke="#333" fill="none"/><path d="M645.68 2348c0-4.42 3.58-8 8-8h137.86c4.42 0 8 3.58 8 8v164c0 4.42-3.58 8-8 8H653.68c-4.42 0-8-3.58-8-8z" fill="none"/><use xlink:href="#g" transform="matrix(1,0,0,1,565.6771848629604,2498) translate(138.28395061728395 14.555555555555555)"/><path d="M1330.4 2406c0-4.42 3.6-8 8-8h137.87c4.4 0 8 3.58 8 8v84c0 4.42-3.6 8-8 8H1338.4c-4.4 0-8-3.58-8-8z" stroke="#000" stroke-opacity="0" fill="#ff8f80"/><use xlink:href="#h" transform="matrix(1,0,0,1,1338.4033141391342,2406) translate(6.382716049382708 34.888888888888886)"/><use xlink:href="#i" transform="matrix(1,0,0,1,1338.4033141391342,2406) translate(69.49382716049382 34.888888888888886)"/><use xlink:href="#M" transform="matrix(1,0,0,1,1338.4033141391342,2406) translate(80.30864197530865 34.888888888888886)"/><use xlink:href="#N" transform="matrix(1,0,0,1,1338.4033141391342,2406) translate(40.456790123456784 56.22222222222222)"/><path d="M830.37 1786.47H759.5v-1h70.87m217.5 1h-86.75v-1h86.75M1048.37 1786.47h-.5v-1h.5M759 1790.6l-14.27-4.63 14.26-4.63z"/><path d="M759.5 1791.3l-16.4-5.33 16.4-5.32m-13.16 5.32l12.15 3.95v-7.9"/><use xlink:href="#O" transform="matrix(1,0,0,1,830.3652715349663,1764.37248012192) translate(0.0049999999999954525 14.4)"/><use xlink:href="#P" transform="matrix(1,0,0,1,830.3652715349663,1764.37248012192) translate(70.905 14.4)"/><use xlink:href="#Q" transform="matrix(1,0,0,1,830.3652715349663,1764.37248012192) translate(113.855 14.4)"/><use xlink:href="#R" transform="matrix(1,0,0,1,830.3652715349663,1764.37248012192) translate(1.9549999999999912 36)"/><use xlink:href="#S" transform="matrix(1,0,0,1,830.3652715349663,1764.37248012192) translate(86.905 36)"/><path d="M839.54 1880.5H743.6v-1h95.94m192.45 1h-80.06v-1H1032"/><path d="M743.62 1880.5h-.5v-1h.5M1046.75 1880l-14.26 4.64v-9.28z"/><path d="M1048.37 1880l-16.38 5.32v-10.64m1 9.27l12.13-3.95-12.14-3.95"/><g><use xlink:href="#T" transform="matrix(1,0,0,1,839.5427406707687,1869.3333333333337) translate(0.005000000000002558 14.222222222222223)"/><use xlink:href="#U" transform="matrix(1,0,0,1,839.5427406707687,1869.3333333333337) translate(44.40006172839507 14.222222222222223)"/></g><path d="M1471.64 1915.1h-381.77v-1h381.77m583.54 1h-274.3v-1h274.3"/><path d="M1089.88 1915.1h-.5v-1h.5M2069.94 1914.6l-14.26 4.65v-9.27z"/><path d="M2071.56 1914.6l-16.38 5.33v-10.64m1 9.26l12.14-3.95-12.14-3.94"/><g><use xlink:href="#V" transform="matrix(1,0,0,1,1471.6449101778105,1903.810363949797) translate(0.0049999999999954525 14.4)"/><use xlink:href="#W" transform="matrix(1,0,0,1,1471.6449101778105,1903.810363949797) translate(40.905 14.4)"/><use xlink:href="#X" transform="matrix(1,0,0,1,1471.6449101778105,1903.810363949797) translate(115.655 14.4)"/><use xlink:href="#n" transform="matrix(1,0,0,1,1471.6449101778105,1903.810363949797) translate(192.60500000000002 14.4)"/><use xlink:href="#Y" transform="matrix(1,0,0,1,1471.6449101778105,1903.810363949797) translate(214.50500000000002 14.4)"/></g><path d="M2068.87 1148c0-4.42 3.58-8 8-8h24c4.42 0 8 3.58 8 8v344c0 4.42-3.58 8-8 8h-24c-4.42 0-8-3.58-8-8zM2072.06 1888c0-4.42 3.58-8 8-8h24c4.42 0 8 3.58 8 8v64c0 4.42-3.58 8-8 8h-24c-4.42 0-8-3.58-8-8zM1048.87 1188c0-4.42 3.58-8 8-8h24c4.42 0 8 3.58 8 8v184c0 4.42-3.58 8-8 8h-24c-4.42 0-8-3.58-8-8z" stroke="#000" fill="#e5e5e5"/><path d="M1442.2 1235.17h-336.44v-1h336.44m625.67 1h-352.32v-1h352.32M2068.37 1235.17h-.5v-1h.5M1105.26 1239.3l-14.27-4.63 14.26-4.64z"/><path d="M1105.76 1240l-16.4-5.33 16.4-5.33m-13.15 5.33l12.16 3.94v-7.88"/><g><use xlink:href="#Z" transform="matrix(1,0,0,1,1442.196825887929,1223.8666666666668) translate(0.0049999999999954525 14.4)"/><use xlink:href="#aa" transform="matrix(1,0,0,1,1442.196825887929,1223.8666666666668) translate(53.955 14.4)"/><use xlink:href="#n" transform="matrix(1,0,0,1,1442.196825887929,1223.8666666666668) translate(123.805 14.4)"/><use xlink:href="#ab" transform="matrix(1,0,0,1,1442.196825887929,1223.8666666666668) translate(145.705 14.4)"/></g><path d="M1100.37 1278.65h-10v-2h10m29.98 2h-20v-2h20m30 2h-20v-2h20m29.97 2h-20v-2h20m29.98 2h-20v-2h20m30 2h-20v-2h20m29.97 2h-20v-2h20m30 2h-20v-2h20m29.97 2h-20v-2h20m30 2h-20v-2h20m29.97 2h-19.98v-2h20m29.97 2h-20v-2h20m29.98 2h-20v-2h20m29.98 2h-20v-2h20m30 2h-20v-2h20m149.9 2h-19.98v-2h20m29.97 2h-20v-2h20m30 2h-20v-2h20m29.97 2h-20v-2h20m30 2h-20v-2h20m29.97 2h-20v-2h20m29.97 2h-20v-2h20m30 2h-20v-2h20m29.97 2h-20v-2h20m30 2h-20v-2h20m29.97 2h-19.98v-2h20m29.98 2h-20v-2h20m29.98 2h-20v-2h20m20 2h-10v-2h10m-409.8 2h-3.86v-2h3.86"/><path d="M1090.4 1278.65h-1.03v-2h1.03M2065.14 1277.65l-14.27 4.63V1273z"/><path d="M2068.37 1277.65l-18.5 6v-12.02m2 9.28l10.03-3.25-10.03-3.26"/><g><use xlink:href="#ac" transform="matrix(1,0,0,1,1521.521825887929,1266.8462181422879) translate(0.005000000000002558 14.4)"/><use xlink:href="#ad" transform="matrix(1,0,0,1,1521.521825887929,1266.8462181422879) translate(66.85499999999999 14.4)"/></g><path d="M1150 1359.54h-60.13v-1H1150m222 1h-44.25v-1H1372"/><path d="M1089.88 1359.54h-.5v-1h.5M1386.75 1359.04l-14.26 4.63v-9.27z"/><path d="M1388.37 1359.04l-16.38 5.32v-10.64m1 9.27l12.14-3.96-12.15-3.95"/><g><use xlink:href="#ae" transform="matrix(1,0,0,1,1149.9968258879287,1326.6386008571358) translate(0.0049999999999954525 14.4)"/><use xlink:href="#af" transform="matrix(1,0,0,1,1149.9968258879287,1326.6386008571358) translate(41.955 14.4)"/><use xlink:href="#ag" transform="matrix(1,0,0,1,1149.9968258879287,1326.6386008571358) translate(113.855 14.4)"/><use xlink:href="#ah" transform="matrix(1,0,0,1,1149.9968258879287,1326.6386008571358) translate(6.554999999999993 36)"/><use xlink:href="#ai" transform="matrix(1,0,0,1,1149.9968258879287,1326.6386008571358) translate(35.455 36)"/><use xlink:href="#aj" transform="matrix(1,0,0,1,1149.9968258879287,1326.6386008571358) translate(78.405 36)"/><use xlink:href="#ak" transform="matrix(1,0,0,1,1149.9968258879287,1326.6386008571358) translate(99.355 36)"/><use xlink:href="#al" transform="matrix(1,0,0,1,1149.9968258879287,1326.6386008571358) translate(22.254999999999995 57.6)"/><use xlink:href="#am" transform="matrix(1,0,0,1,1149.9968258879287,1326.6386008571358) translate(63.154999999999994 57.6)"/><use xlink:href="#an" transform="matrix(1,0,0,1,1149.9968258879287,1326.6386008571358) translate(123.005 57.6)"/></g><path d="M1116.62 1720.5h-26.75v-1h26.75m255.37 1h-10.88v-1H1372"/><path d="M1089.88 1720.5h-.5v-1h.5M1386.75 1720l-14.26 4.64v-9.28z"/><path d="M1388.37 1720l-16.38 5.32v-10.64m1 9.27l12.14-3.95-12.15-3.95"/><g><use xlink:href="#ao" transform="matrix(1,0,0,1,1116.6249123076818,1698.6666666666667) translate(15.190185185185186 14.222222222222223)"/><use xlink:href="#ap" transform="matrix(1,0,0,1,1116.6249123076818,1698.6666666666667) translate(64.42475308641976 14.222222222222223)"/><use xlink:href="#aq" transform="matrix(1,0,0,1,1116.6249123076818,1698.6666666666667) translate(86.05438271604939 14.222222222222223)"/><use xlink:href="#ar" transform="matrix(1,0,0,1,1116.6249123076818,1698.6666666666667) translate(142.54820987654324 14.222222222222223)"/><use xlink:href="#as" transform="matrix(1,0,0,1,1116.6249123076818,1698.6666666666667) translate(213.56055555555557 14.222222222222223)"/><use xlink:href="#at" transform="matrix(1,0,0,1,1116.6249123076818,1698.6666666666667) translate(0.0049999999999954525 35.55555555555556)"/><use xlink:href="#au" transform="matrix(1,0,0,1,1116.6249123076818,1698.6666666666667) translate(144.00500000000002 35.55555555555556)"/><use xlink:href="#av" transform="matrix(1,0,0,1,1116.6249123076818,1698.6666666666667) translate(220.8938888888889 35.55555555555556)"/></g><path d="M2171.57 1160.5h-62.2v-1h62.2m245.47 1h-46.32v-1h46.32"/><path d="M2109.38 1160.5h-.5v-1h.5M2431.8 1160l-14.26 4.64v-9.28z"/><path d="M2433.42 1160l-16.38 5.32v-10.64m1 9.27l12.15-3.95-12.16-3.95"/><g><use xlink:href="#aw" transform="matrix(1,0,0,1,2171.572933130184,1149.2) translate(0.0049999999999954525 14.4)"/><use xlink:href="#ax" transform="matrix(1,0,0,1,2171.572933130184,1149.2) translate(53.955 14.4)"/><use xlink:href="#ay" transform="matrix(1,0,0,1,2171.572933130184,1149.2) translate(79.905 14.4)"/><use xlink:href="#az" transform="matrix(1,0,0,1,2171.572933130184,1149.2) translate(132.255 14.4)"/></g><path d="M2223.2 1200.5h-97.94v-1h97.94m209.72 1H2319.1v-1h113.82M2433.42 1200.5h-.5v-1h.5M2124.76 1204.64l-14.27-4.64 14.26-4.64z"/><path d="M2125.26 1205.32l-16.4-5.32 16.4-5.32m-13.15 5.32l12.16 3.95v-7.9"/><g><use xlink:href="#aA" transform="matrix(1,0,0,1,2223.197933130184,1189.2) translate(0.005000000000002558 14.4)"/><use xlink:href="#aB" transform="matrix(1,0,0,1,2223.197933130184,1189.2) translate(60.905 14.4)"/></g><path d="M2193.72 1937.83h-80.66v-1h80.66m224.32 1h-64.77v-1h64.77"/><path d="M2113.07 1937.83h-.5v-1h.5M2432.8 1937.33l-14.26 4.64v-9.27z"/><path d="M2434.42 1937.33l-16.38 5.33V1932m1 9.28l12.15-3.95-12.16-3.94"/><g><use xlink:href="#aC" transform="matrix(1,0,0,1,2193.7175080533943,1926.5333333333333) translate(0.0049999999999954525 14.4)"/><use xlink:href="#aD" transform="matrix(1,0,0,1,2193.7175080533943,1926.5333333333333) translate(63.805 14.4)"/><use xlink:href="#aE" transform="matrix(1,0,0,1,2193.7175080533943,1926.5333333333333) translate(112.70500000000001 14.4)"/><use xlink:href="#aF" transform="matrix(1,0,0,1,2193.7175080533943,1926.5333333333333) translate(133.65500000000003 14.4)"/></g><defs><path fill="#333" d="M249-183c0 48-29 72-75 77L221 0h-36l-43-103H65L45 0H11l48-248c83 2 190-17 190 65zm-34 3c0-55-74-39-127-41l-18 92c63-1 145 13 145-51" id="aG"/><path fill="#333" d="M67 3c-93-2-31-127-26-193h32L48-50c-3 39 53 32 70 12 30-34 30-101 43-152h32L157 0h-30c1-10 6-24 4-33-14 20-29 37-64 36" id="aH"/><path fill="#333" d="M67-158c22-48 132-52 116 29L158 0h-32l25-140c3-38-53-32-70-12C52-117 51-52 38 0H6l36-190h30" id="aI"/><path fill="#333" d="M111-194c62-3 86 47 72 106H45c-7 38 6 69 45 68 27-1 43-14 53-32l24 11C152-15 129 4 87 4 38 3 12-23 12-71c0-70 32-119 99-123zm44 81c14-66-71-72-95-28-4 8-8 17-11 28h106" id="aJ"/><path fill="#333" d="M66-151c12-25 30-51 66-40l-6 26C45-176 58-65 38 0H6l36-190h30" id="aK"/><g id="a"><use transform="matrix(0.04938271604938272,0,0,0.04938271604938272,0,0)" xlink:href="#aG"/><use transform="matrix(0.04938271604938272,0,0,0.04938271604938272,12.790123456790125,0)" xlink:href="#aH"/><use transform="matrix(0.04938271604938272,0,0,0.04938271604938272,22.66666666666667,0)" xlink:href="#aI"/><use transform="matrix(0.04938271604938272,0,0,0.04938271604938272,32.543209876543216,0)" xlink:href="#aI"/><use transform="matrix(0.04938271604938272,0,0,0.04938271604938272,42.41975308641976,0)" xlink:href="#aJ"/><use transform="matrix(0.04938271604938272,0,0,0.04938271604938272,52.2962962962963,0)" xlink:href="#aK"/><path fill="#333" d="M-.9 1.23h59.96v1.3H-.9z"/></g><path fill="#333" d="M148-71c0-36-31-44-71-41l5-28c46 3 81-6 81-50 0-23-15-35-39-35-30 0-49 17-56 41l-32-3c12-39 42-63 90-64 43 0 69 19 71 60 1 43-30 58-65 66 27 5 49 22 49 53 0 85-133 99-164 35-4-7-7-15-9-22l29-9c8 25 25 45 58 45 34 1 53-17 53-48" id="aL"/><path fill="#333" d="M133-28C103 26-5 8 13-77c13-62 24-115 90-117 29-1 46 15 56 35l19-102h32L160 0h-30zM45-64c-2 27 10 43 35 43 54-1 69-50 69-103 0-29-15-46-42-46-53-1-58 58-62 106" id="aM"/><g id="b"><use transform="matrix(0.04938271604938272,0,0,0.04938271604938272,0,0)" xlink:href="#aL"/><use transform="matrix(0.04938271604938272,0,0,0.04938271604938272,9.876543209876544,0)" xlink:href="#aK"/><use transform="matrix(0.04938271604938272,0,0,0.04938271604938272,15.753086419753087,0)" xlink:href="#aM"/><path fill="#333" d="M-.9 1.23h32.36v1.3H-.9z"/></g><path fill="#333" d="M67-162c32-53 139-36 121 50C175-51 163 2 97 4 68 4 52-11 42-31 38 6 28 39 22 75H-9l50-265h29c-1 10 0 20-3 28zm89 36c0-26-10-43-35-43-54 0-67 50-69 103-1 29 14 45 42 46 53 0 62-58 62-106" id="aN"/><path fill="#333" d="M165-48c-4 18 1 34 23 27l-3 20c-29 8-62 0-52-35h-2C116-14 99 4 63 4 30 4 8-16 8-49c0-68 71-67 138-67 10-26 0-56-31-54-26 1-42 9-47 31l-32-5c8-67 160-71 144 15-5 28-9 54-15 81zM42-50c3 52 80 24 89-6 7-12 7-24 11-38-47 1-103-4-100 44" id="aO"/><path fill="#333" d="M51-54c-9 22 5 41 31 30L79-1C43 14 10-4 19-52l22-115H19l5-23h22l19-43h21l-9 43h35l-4 23H73" id="aP"/><path fill="#333" d="M198-190L69 30C53 58 25 83-20 72c4-11-1-27 19-22 33-1 43-29 59-52L20-190h32L79-34l84-156h35" id="aQ"/><g id="c"><use transform="matrix(0.04938271604938272,0,0,0.04938271604938272,0,0)" xlink:href="#aN"/><use transform="matrix(0.04938271604938272,0,0,0.04938271604938272,9.876543209876544,0)" xlink:href="#aO"/><use transform="matrix(0.04938271604938272,0,0,0.04938271604938272,19.75308641975309,0)" xlink:href="#aK"/><use transform="matrix(0.04938271604938272,0,0,0.04938271604938272,25.629629629629633,0)" xlink:href="#aP"/><use transform="matrix(0.04938271604938272,0,0,0.04938271604938272,30.567901234567906,0)" xlink:href="#aQ"/><path fill="#333" d="M-.9 1.23H45.3v1.3H-.9z"/></g><path fill="#333" d="M55-144c13 50 104 24 104 88C159 21 15 23 1-39l26-10c6 40 102 42 102-4-13-50-104-23-104-87 0-71 143-71 148-8l-29 4c-5-35-85-37-89 0" id="aR"/><path fill="#333" d="M248-111c6-24 9-61-24-58-72 9-57 108-77 169h-31l26-142c3-37-50-30-64-10C52-115 50-51 37 0H6l36-190h30c-1 10-6 24-4 32 13-43 101-52 105 5 13-22 29-41 61-41 90 0 28 129 23 194h-31" id="aS"/><g id="d"><use transform="matrix(0.04938271604938272,0,0,0.04938271604938272,0,0)" xlink:href="#aR"/><use transform="matrix(0.04938271604938272,0,0,0.04938271604938272,8.88888888888889,0)" xlink:href="#aQ"/><use transform="matrix(0.04938271604938272,0,0,0.04938271604938272,17.77777777777778,0)" xlink:href="#aR"/><use transform="matrix(0.04938271604938272,0,0,0.04938271604938272,26.666666666666668,0)" xlink:href="#aP"/><use transform="matrix(0.04938271604938272,0,0,0.04938271604938272,31.60493827160494,0)" xlink:href="#aJ"/><use transform="matrix(0.04938271604938272,0,0,0.04938271604938272,41.48148148148148,0)" xlink:href="#aS"/><path fill="#333" d="M-.9 1.23h58.03v1.3H-.9z"/></g><path fill="#333" d="M17-49c1-102 45-165 103-212h30C92-210 49-145 49-46 49 4 63 43 85 75H54C30 43 18 2 17-49" id="aT"/><path fill="#333" d="M124 0L87-78 21 0h-35l86-98-46-92h33l34 74 61-74h37l-83 92 50 98h-34" id="aU"/><path fill="#333" d="M6 0l50-261h32L37 0H6" id="aV"/><path fill="#333" d="M98-137C97-35 54 29-4 75h-31C23 23 67-41 67-140c0-50-15-89-37-121h31c24 32 36 73 37 124" id="aW"/><g id="e"><use transform="matrix(0.04938271604938272,0,0,0.04938271604938272,0,0)" xlink:href="#aT"/><use transform="matrix(0.04938271604938272,0,0,0.04938271604938272,5.8765432098765435,0)" xlink:href="#aJ"/><use transform="matrix(0.04938271604938272,0,0,0.04938271604938272,15.753086419753087,0)" xlink:href="#aU"/><use transform="matrix(0.04938271604938272,0,0,0.04938271604938272,24.641975308641978,0)" xlink:href="#aO"/><use transform="matrix(0.04938271604938272,0,0,0.04938271604938272,34.51851851851852,0)" xlink:href="#aS"/><use transform="matrix(0.04938271604938272,0,0,0.04938271604938272,49.28395061728395,0)" xlink:href="#aN"/><use transform="matrix(0.04938271604938272,0,0,0.04938271604938272,59.1604938271605,0)" xlink:href="#aV"/><use transform="matrix(0.04938271604938272,0,0,0.04938271604938272,63.06172839506172,0)" xlink:href="#aJ"/><use transform="matrix(0.04938271604938272,0,0,0.04938271604938272,72.93827160493828,0)" xlink:href="#aW"/><path fill="#333" d="M-.9 1.23h80.6v1.3H-.9z"/></g><path fill="#333" d="M248-139C247-14 144 9 11 0l48-248c105-6 190 8 189 109zm-34 0c1-70-52-87-126-82L50-27c98 7 163-21 164-112" id="aX"/><path fill="#333" d="M219-77C219 17 104-2 11 0l48-248c73 2 169-15 169 57 0 38-24 54-60 60 29 5 51 21 51 54zm-26-111c0-44-62-31-105-33l-16 79c55 0 121 9 121-46zm-7 110c-1-49-69-36-119-38L50-27c61-1 137 12 136-51" id="aY"/><g id="f"><use transform="matrix(0.04938271604938272,0,0,0.04938271604938272,0,0)" xlink:href="#aX"/><use transform="matrix(0.04938271604938272,0,0,0.04938271604938272,12.790123456790125,0)" xlink:href="#aY"/><path fill="#333" d="M-.9 1.23h26.43v1.3H-.9z"/></g><path fill="#333" d="M62-99C39-31 123 0 170-40s38-139 58-208h34C234-144 253 4 115 4 49 4 18-43 31-112l26-136h34" id="aZ"/><g id="g"><use transform="matrix(0.04938271604938272,0,0,0.04938271604938272,0,0)" xlink:href="#aZ"/><use transform="matrix(0.04938271604938272,0,0,0.04938271604938272,12.790123456790125,0)" xlink:href="#aR"/><use transform="matrix(0.04938271604938272,0,0,0.04938271604938272,21.679012345679013,0)" xlink:href="#aJ"/><use transform="matrix(0.04938271604938272,0,0,0.04938271604938272,31.555555555555557,0)" xlink:href="#aK"/></g><g id="h"><use transform="matrix(0.04938271604938272,0,0,0.04938271604938272,0,0)" xlink:href="#aG"/><use transform="matrix(0.04938271604938272,0,0,0.04938271604938272,12.790123456790125,0)" xlink:href="#aH"/><use transform="matrix(0.04938271604938272,0,0,0.04938271604938272,22.66666666666667,0)" xlink:href="#aI"/><use transform="matrix(0.04938271604938272,0,0,0.04938271604938272,32.543209876543216,0)" xlink:href="#aI"/><use transform="matrix(0.04938271604938272,0,0,0.04938271604938272,42.41975308641976,0)" xlink:href="#aJ"/><use transform="matrix(0.04938271604938272,0,0,0.04938271604938272,52.2962962962963,0)" xlink:href="#aK"/><path fill="#333" d="M-.9 1.23H64v1.3H-.9z"/></g><path fill="#333" d="M18-82l6-28h88l-6 28H18" id="ba"/><g id="i"><use transform="matrix(0.04938271604938272,0,0,0.04938271604938272,0,0)" xlink:href="#ba"/><path fill="#333" d="M-.9 1.23h12.6v1.3H-.9z"/></g><path fill="#333" d="M125-24c46 0 70-25 89-51l25 16C214-24 183 4 123 4 8 4-5-146 60-208c32-50 158-61 191-5 5 7 9 14 11 22l-32 10c-9-28-33-43-69-43-74 0-108 51-108 125 0 46 24 75 72 75" id="bb"/><path fill="#333" d="M44-68c0 29 11 47 38 47 30 0 42-19 51-41l28 9C148-21 126 4 82 4 31 4 10-29 12-85c3-77 74-140 146-93 12 8 15 23 18 40l-31 5c-1-22-13-36-36-36-52 0-65 49-65 101" id="bc"/><path fill="#333" d="M67-158c15-20 31-36 64-36 94 0 33 127 27 194h-32l25-140c3-38-53-32-70-12C52-117 51-51 37 0H6l51-261h31" id="bd"/><g id="j"><use transform="matrix(0.04938271604938272,0,0,0.04938271604938272,0,0)" xlink:href="#bb"/><use transform="matrix(0.04938271604938272,0,0,0.04938271604938272,12.790123456790125,0)" xlink:href="#aO"/><use transform="matrix(0.04938271604938272,0,0,0.04938271604938272,22.66666666666667,0)" xlink:href="#bc"/><use transform="matrix(0.04938271604938272,0,0,0.04938271604938272,31.555555555555557,0)" xlink:href="#bd"/><use transform="matrix(0.04938271604938272,0,0,0.04938271604938272,41.4320987654321,0)" xlink:href="#aJ"/><path fill="#333" d="M-.9 1.23h53.1v1.3H-.9z"/></g><path fill="#333" d="M50-231l6-30h32l-6 30H50zM6 0l37-190h31L37 0H6" id="be"/><g id="k"><use transform="matrix(0.04938271604938272,0,0,0.04938271604938272,0,0)" xlink:href="#aT"/><use transform="matrix(0.04938271604938272,0,0,0.04938271604938272,5.8765432098765435,0)" xlink:href="#aG"/><use transform="matrix(0.04938271604938272,0,0,0.04938271604938272,18.666666666666668,0)" xlink:href="#aJ"/><use transform="matrix(0.04938271604938272,0,0,0.04938271604938272,28.543209876543212,0)" xlink:href="#aM"/><use transform="matrix(0.04938271604938272,0,0,0.04938271604938272,38.41975308641976,0)" xlink:href="#be"/><use transform="matrix(0.04938271604938272,0,0,0.04938271604938272,42.320987654320994,0)" xlink:href="#aR"/><use transform="matrix(0.04938271604938272,0,0,0.04938271604938272,51.209876543209894,0)" xlink:href="#aW"/><path fill="#333" d="M-.9 1.23h58.87v1.3H-.9z"/></g><path d="M24 0v-248h195v40H76v63h132v40H76v65h150V0H24" id="bf"/><path d="M220-157c-53 9-28 100-34 157h-49v-107c1-27-5-49-29-50C55-147 81-57 75 0H25l-1-190h47c2 12-1 28 3 38 10-53 101-56 108 0 13-22 24-43 59-42 82 1 51 116 57 194h-49v-107c-1-25-5-48-29-50" id="bg"/><path d="M133-34C117-15 103 5 69 4 32 3 11-16 11-54c-1-60 55-63 116-61 1-26-3-47-28-47-18 1-26 9-28 27l-52-2c7-38 36-58 82-57s74 22 75 68l1 82c-1 14 12 18 25 15v27c-30 8-71 5-69-32zm-48 3c29 0 43-24 42-57-32 0-66-3-65 30 0 17 8 27 23 27" id="bh"/><path d="M25-224v-37h50v37H25zM25 0v-190h50V0H25" id="bi"/><path d="M25 0v-261h50V0H25" id="bj"/><g id="l"><use transform="matrix(0.05,0,0,0.05,0,0)" xlink:href="#bf"/><use transform="matrix(0.05,0,0,0.05,12,0)" xlink:href="#bg"/><use transform="matrix(0.05,0,0,0.05,28,0)" xlink:href="#bh"/><use transform="matrix(0.05,0,0,0.05,38,0)" xlink:href="#bi"/><use transform="matrix(0.05,0,0,0.05,43,0)" xlink:href="#bj"/></g><path d="M137-138c1-29-70-34-71-4 15 46 118 7 119 86 1 83-164 76-172 9l43-7c4 19 20 25 44 25 33 8 57-30 24-41C81-84 22-81 20-136c-2-80 154-74 161-7" id="bk"/><path d="M185-48c-13 30-37 53-82 52C43 2 14-33 14-96s30-98 90-98c62 0 83 45 84 108H66c0 31 8 55 39 56 18 0 30-7 34-22zm-45-69c5-46-57-63-70-21-2 6-4 13-4 21h74" id="bl"/><path d="M135-194c87-1 58 113 63 194h-50c-7-57 23-157-34-157-59 0-34 97-39 157H25l-1-190h47c2 12-1 28 3 38 12-26 28-41 61-42" id="bm"/><path d="M115-3C79 11 28 4 28-45v-112H4v-33h27l15-45h31v45h36v33H77v99c-1 23 16 31 38 25v30" id="bn"/><g id="m"><use transform="matrix(0.05,0,0,0.05,0,0)" xlink:href="#bk"/><use transform="matrix(0.05,0,0,0.05,10,0)" xlink:href="#bl"/><use transform="matrix(0.05,0,0,0.05,20,0)" xlink:href="#bm"/><use transform="matrix(0.05,0,0,0.05,30.950000000000003,0)" xlink:href="#bn"/></g><path d="M110-194c64 0 96 36 96 99 0 64-35 99-97 99-61 0-95-36-95-99 0-62 34-99 96-99zm-1 164c35 0 45-28 45-65 0-40-10-65-43-65-34 0-45 26-45 65 0 36 10 65 43 65" id="bo"/><g id="n"><use transform="matrix(0.05,0,0,0.05,0,0)" xlink:href="#bn"/><use transform="matrix(0.05,0,0,0.05,5.95,0)" xlink:href="#bo"/></g><path d="M135-194c53 0 70 44 70 98 0 56-19 98-73 100-31 1-45-17-59-34 3 33 2 69 2 105H25l-1-265h48c2 10 0 23 3 31 11-24 29-35 60-35zM114-30c33 0 39-31 40-66 0-38-9-64-40-64-56 0-55 130 0 130" id="bp"/><path d="M190-63c-7 42-38 67-86 67-59 0-84-38-90-98-12-110 154-137 174-36l-49 2c-2-19-15-32-35-32-30 0-35 28-38 64-6 74 65 87 74 30" id="bq"/><g id="o"><use transform="matrix(0.05,0,0,0.05,0,0)" xlink:href="#bh"/><use transform="matrix(0.05,0,0,0.05,10,0)" xlink:href="#bp"/><use transform="matrix(0.05,0,0,0.05,20.950000000000003,0)" xlink:href="#bp"/><use transform="matrix(0.05,0,0,0.05,31.900000000000006,0)" xlink:href="#bj"/><use transform="matrix(0.05,0,0,0.05,36.900000000000006,0)" xlink:href="#bi"/><use transform="matrix(0.05,0,0,0.05,41.900000000000006,0)" xlink:href="#bq"/><use transform="matrix(0.05,0,0,0.05,51.900000000000006,0)" xlink:href="#bh"/><use transform="matrix(0.05,0,0,0.05,61.900000000000006,0)" xlink:href="#bm"/><use transform="matrix(0.05,0,0,0.05,72.85000000000001,0)" xlink:href="#bn"/></g><path d="M231 0h-52l-39-155L100 0H48L-1-190h46L77-45c9-52 24-97 36-145h53l37 145 32-145h46" id="br"/><path d="M114-157C55-157 80-60 75 0H25v-261h50l-1 109c12-26 28-41 61-42 86-1 58 113 63 194h-50c-7-57 23-157-34-157" id="bs"/><g id="q"><use transform="matrix(0.05,0,0,0.05,0,0)" xlink:href="#br"/><use transform="matrix(0.05,0,0,0.05,14,0)" xlink:href="#bi"/><use transform="matrix(0.05,0,0,0.05,19,0)" xlink:href="#bn"/><use transform="matrix(0.05,0,0,0.05,24.95,0)" xlink:href="#bs"/></g><path d="M195-6C206 82 75 100 31 46c-4-6-6-13-8-21l49-6c3 16 16 24 34 25 40 0 42-37 40-79-11 22-30 35-61 35-53 0-70-43-70-97 0-56 18-96 73-97 30 0 46 14 59 34l2-30h47zm-90-29c32 0 41-27 41-63 0-35-9-62-40-62-32 0-39 29-40 63 0 36 9 62 39 62" id="bt"/><g id="r"><use transform="matrix(0.05,0,0,0.05,0,0)" xlink:href="#bg"/><use transform="matrix(0.05,0,0,0.05,16,0)" xlink:href="#bh"/><use transform="matrix(0.05,0,0,0.05,26,0)" xlink:href="#bt"/><use transform="matrix(0.05,0,0,0.05,36.95,0)" xlink:href="#bi"/><use transform="matrix(0.05,0,0,0.05,41.95,0)" xlink:href="#bq"/></g><path d="M147 0L96-86 75-71V0H25v-261h50v150l67-79h53l-66 74L201 0h-54" id="bu"/><g id="s"><use transform="matrix(0.05,0,0,0.05,0,0)" xlink:href="#bj"/><use transform="matrix(0.05,0,0,0.05,5,0)" xlink:href="#bi"/><use transform="matrix(0.05,0,0,0.05,10,0)" xlink:href="#bm"/><use transform="matrix(0.05,0,0,0.05,20.950000000000003,0)" xlink:href="#bu"/></g><path d="M88-194c31-1 46 15 58 34l-1-101h50l1 261h-48c-2-10 0-23-3-31C134-8 116 4 84 4 32 4 16-41 15-95c0-56 19-97 73-99zm17 164c33 0 40-30 41-66 1-37-9-64-41-64s-38 30-39 65c0 43 13 65 39 65" id="bv"/><g id="t"><use transform="matrix(0.05,0,0,0.05,0,0)" xlink:href="#bl"/><use transform="matrix(0.05,0,0,0.05,10,0)" xlink:href="#bv"/><use transform="matrix(0.05,0,0,0.05,20.950000000000003,0)" xlink:href="#bi"/><use transform="matrix(0.05,0,0,0.05,25.950000000000003,0)" xlink:href="#bn"/></g><path d="M135-150c-39-12-60 13-60 57V0H25l-1-190h47c2 13-1 29 3 40 6-28 27-53 61-41v41" id="bw"/><g id="u"><use transform="matrix(0.05,0,0,0.05,0,0)" xlink:href="#bh"/><use transform="matrix(0.05,0,0,0.05,10,0)" xlink:href="#bm"/><use transform="matrix(0.05,0,0,0.05,20.950000000000003,0)" xlink:href="#bk"/><use transform="matrix(0.05,0,0,0.05,30.950000000000003,0)" xlink:href="#br"/><use transform="matrix(0.05,0,0,0.05,44.95,0)" xlink:href="#bl"/><use transform="matrix(0.05,0,0,0.05,54.95,0)" xlink:href="#bw"/><use transform="matrix(0.05,0,0,0.05,61.95,0)" xlink:href="#bk"/></g><path d="M85 4C-2 5 27-109 22-190h50c7 57-23 150 33 157 60-5 35-97 40-157h50l1 190h-47c-2-12 1-28-3-38-12 25-28 42-61 42" id="bx"/><g id="v"><use transform="matrix(0.05,0,0,0.05,0,0)" xlink:href="#bx"/><use transform="matrix(0.05,0,0,0.05,10.950000000000001,0)" xlink:href="#bk"/><use transform="matrix(0.05,0,0,0.05,20.950000000000003,0)" xlink:href="#bi"/><use transform="matrix(0.05,0,0,0.05,25.950000000000003,0)" xlink:href="#bm"/><use transform="matrix(0.05,0,0,0.05,36.900000000000006,0)" xlink:href="#bt"/></g><g id="w"><use transform="matrix(0.05,0,0,0.05,0,0)" xlink:href="#bn"/><use transform="matrix(0.05,0,0,0.05,5.95,0)" xlink:href="#bo"/><use transform="matrix(0.05,0,0,0.05,16.900000000000002,0)" xlink:href="#bu"/><use transform="matrix(0.05,0,0,0.05,26.900000000000002,0)" xlink:href="#bl"/><use transform="matrix(0.05,0,0,0.05,36.900000000000006,0)" xlink:href="#bm"/></g><path d="M24 0v-54h51V0H24" id="by"/><path d="M35-132v-50h50v50H35zM35 0v-49h50V0H35" id="bz"/><g id="x"><use transform="matrix(0.05,0,0,0.05,0,0)" xlink:href="#bl"/><use transform="matrix(0.05,0,0,0.05,10,0)" xlink:href="#by"/><use transform="matrix(0.05,0,0,0.05,15,0)" xlink:href="#bt"/><use transform="matrix(0.05,0,0,0.05,25.950000000000003,0)" xlink:href="#bz"/></g><path d="M424-1484c-2 206 5 424-8 618h4c67-145 160-234 348-236 251-3 335 167 336 416V0H824v-621c0-150-23-276-173-270-163 7-227 142-227 312V0H143v-1484h281" id="bA"/><path d="M711 13c-250 0-386-99-385-349l2-556H161v-190h181l88-282h176v282h385v190H606v530c-10 130 45 186 174 184 91-2 176-11 255-27v186C933-1 833 13 711 13" id="bB"/><path d="M427-171c3 195 2 397 2 596H148V-846c1-83-4-168-8-236h272c10 49 14 118 15 176h4c59-114 151-197 316-197 291 0 385 259 385 560 0 243-65 433-220 521-50 28-109 42-176 42-162-2-253-78-309-191zm69-661c-91 113-92 463-1 586 46 62 145 101 225 54 96-57 118-191 119-351 0-123-18-215-53-276-46-82-128-115-220-74-25 12-48 33-70 61" id="bC"/><path d="M622-916c-112 2-200 14-200 111 0 90 89 101 168 121 234 58 514 77 514 368C1104-4 751 54 434 5 267-21 161-112 121-270l247-37c24 111 113 145 252 141 114-3 226-12 226-124 0-101-103-113-192-134-225-54-490-76-490-351 0-247 201-328 458-328 245 0 413 88 457 292l-249 26c-16-98-92-133-208-131" id="bD"/><path d="M470 0v-305h289V0H470zm0-780v-305h289v305H470" id="bE"/><path d="M89 20l821-1504h228L321 20H89" id="bF"/><path d="M875-1102c70 0 148 7 206 17v237c-110-17-267-37-359 15-123 69-192 207-192 395V0H250c-10-367 32-789-52-1082h271c19 69 36 149 46 228h4c52-151 151-250 356-248" id="bG"/><path d="M471 20c-247 0-336-169-336-415v-687h281v607c4 148 31 285 172 285 152 0 207-150 207-312v-580h281c4 359-9 736 8 1082H816c-7-63-11-146-12-215h-5C736-76 644 20 471 20" id="bH"/><path d="M768-1103c247 0 336 167 336 416V0H824v-619c-3-164-24-273-171-273-164 0-229 142-229 312V0H143c-4-359 9-736-8-1082h268c7 63 12 146 13 215h4c67-145 160-236 348-236" id="bI"/><path d="M1113-274C1038-96 884 20 626 20c-352 0-526-209-526-566 0-358 185-556 530-556 358 0 496 251 499 615H395c5 180 68 319 245 319 102 0 186-45 208-129zM857-663c-6-177-128-307-315-247-94 30-141 121-145 247h460" id="bJ"/><path d="M794-190h353V0H118v-190h395v-702H223v-190h571v892zM513-1277v-207h281v207H513" id="bK"/><path d="M1108-33c-3 314-178 467-492 467-243 0-400-94-447-291l281-33c17 79 82 141 174 141 176 0 212-155 205-347-2-40 5-80 0-115C773-85 665-12 501-12c-288 0-377-242-377-538 0-242 65-426 223-510 50-26 108-39 175-39 160 0 253 78 307 191h5c1-58 5-125 14-174h266c-12 335-3 703-6 1049zM811-384c25-82 27-259 1-342-30-99-77-180-190-180-172 0-205 171-205 356 0 116 18 202 54 258 48 76 129 107 221 70 62-25 96-86 119-162" id="bL"/><path d="M324-409v-244h580v244H324" id="bM"/><path d="M74-941c43-271 218-429 531-429 230 0 395 77 473 228 37 73 48 181 18 263-67 190-287 233-382 394-14 23-20 50-21 79H426c12-222 175-299 304-402 50-40 100-83 100-166 0-120-96-170-221-170-147 0-229 84-250 215zM418 0v-270h289V0H418" id="bN"/><path d="M802-909c-3-189-2-383-2-575h281v1248c-1 83 4 168 8 236H817c-9-50-14-117-15-176h-4C735-49 651 20 482 20 191 20 97-238 97-539c0-243 66-432 221-519 50-28 108-42 175-42 162 2 253 78 309 191zm-70 658c91-113 93-462 2-584-46-61-145-100-224-53-96 56-119 190-120 349 0 123 17 214 52 275 46 82 130 115 222 74 25-12 46-33 68-61" id="bO"/><path d="M101-842v-223h1027v223H101zm0 551v-221h1027v221H101" id="bP"/><path d="M671-819c247 54 481 125 481 426 0 280-202 375-481 389v175H562V-1C273-9 116-140 69-389l256-47c20 136 91 217 237 228v-391c-233-51-445-128-445-412 0-259 193-342 445-356v-134h109v134c268 5 402 128 451 350l-264 39c-20-115-82-179-187-193v352zm-109-356c-108 9-181 50-183 160-2 121 92 141 183 172v-332zm109 967c128-10 219-52 221-181 2-138-115-154-221-186v367" id="bQ"/><path d="M685 25c1 134 43 209 172 209h188v191H718c-189-5-295-108-295-299v-328c1-155-78-228-229-229v-195c150-4 229-75 229-231v-328c-2-190 109-299 295-299h327v190H857c-129 1-171 76-172 209v301c-5 144-88 222-207 252v4c118 31 207 107 207 252V25" id="bR"/><path d="M616-1102c361 0 521 202 521 560 0 354-171 562-527 562C259 20 92-192 92-542c0-351 169-560 524-560zm-9 930c200-2 236-165 236-370 0-199-27-367-223-367-195 0-233 146-233 367 0 129 18 223 55 282s92 88 165 88" id="bS"/><path d="M864 0L575-490l-121 84V0H173v-1484h281v850l386-448h302L762-660 1171 0H864" id="bT"/><path d="M806 126c-4 191-105 299-295 299H184V234h188c129-1 171-75 172-209v-301c5-145 89-221 207-252v-4c-119-30-207-108-207-252v-301c-1-133-43-209-172-209H184v-190h327c186 0 295 109 295 299v328c-1 156 79 227 229 231v195c-151 1-229 74-229 229v328" id="bU"/><g id="y"><use transform="matrix(0.0087890625,0,0,0.0087890625,0,0)" xlink:href="#bA"/><use transform="matrix(0.0087890625,0,0,0.0087890625,10.8017578125,0)" xlink:href="#bB"/><use transform="matrix(0.0087890625,0,0,0.0087890625,21.603515625,0)" xlink:href="#bB"/><use transform="matrix(0.0087890625,0,0,0.0087890625,32.4052734375,0)" xlink:href="#bC"/><use transform="matrix(0.0087890625,0,0,0.0087890625,43.20703125,0)" xlink:href="#bD"/><use transform="matrix(0.0087890625,0,0,0.0087890625,54.0087890625,0)" xlink:href="#bE"/><use transform="matrix(0.0087890625,0,0,0.0087890625,64.810546875,0)" xlink:href="#bF"/><use transform="matrix(0.0087890625,0,0,0.0087890625,75.6123046875,0)" xlink:href="#bF"/><use transform="matrix(0.0087890625,0,0,0.0087890625,86.4140625,0)" xlink:href="#bG"/><use transform="matrix(0.0087890625,0,0,0.0087890625,97.2158203125,0)" xlink:href="#bH"/><use transform="matrix(0.0087890625,0,0,0.0087890625,108.017578125,0)" xlink:href="#bI"/><use transform="matrix(0.0087890625,0,0,0.0087890625,118.8193359375,0)" xlink:href="#bI"/><use transform="matrix(0.0087890625,0,0,0.0087890625,129.62109375,0)" xlink:href="#bJ"/><use transform="matrix(0.0087890625,0,0,0.0087890625,140.4228515625,0)" xlink:href="#bG"/><use transform="matrix(0.0087890625,0,0,0.0087890625,151.224609375,0)" xlink:href="#bF"/><use transform="matrix(0.0087890625,0,0,0.0087890625,162.0263671875,0)" xlink:href="#bG"/><use transform="matrix(0.0087890625,0,0,0.0087890625,172.828125,0)" xlink:href="#bJ"/><use transform="matrix(0.0087890625,0,0,0.0087890625,183.6298828125,0)" xlink:href="#bB"/><use transform="matrix(0.0087890625,0,0,0.0087890625,194.431640625,0)" xlink:href="#bH"/><use transform="matrix(0.0087890625,0,0,0.0087890625,205.2333984375,0)" xlink:href="#bG"/><use transform="matrix(0.0087890625,0,0,0.0087890625,216.03515625,0)" xlink:href="#bI"/><use transform="matrix(0.0087890625,0,0,0.0087890625,226.8369140625,0)" xlink:href="#bK"/><use transform="matrix(0.0087890625,0,0,0.0087890625,237.638671875,0)" xlink:href="#bI"/><use transform="matrix(0.0087890625,0,0,0.0087890625,248.4404296875,0)" xlink:href="#bL"/><use transform="matrix(0.0087890625,0,0,0.0087890625,259.2421875,0)" xlink:href="#bM"/><use transform="matrix(0.0087890625,0,0,0.0087890625,270.0439453125,0)" xlink:href="#bH"/><use transform="matrix(0.0087890625,0,0,0.0087890625,280.845703125,0)" xlink:href="#bD"/><use transform="matrix(0.0087890625,0,0,0.0087890625,291.6474609375,0)" xlink:href="#bJ"/><use transform="matrix(0.0087890625,0,0,0.0087890625,302.44921875,0)" xlink:href="#bG"/><use transform="matrix(0.0087890625,0,0,0.0087890625,313.2509765625,0)" xlink:href="#bN"/><use transform="matrix(0.0087890625,0,0,0.0087890625,324.052734375,0)" xlink:href="#bK"/><use transform="matrix(0.0087890625,0,0,0.0087890625,334.8544921875,0)" xlink:href="#bO"/><use transform="matrix(0.0087890625,0,0,0.0087890625,345.65625,0)" xlink:href="#bP"/><use transform="matrix(0.0087890625,0,0,0.0087890625,356.4580078125,0)" xlink:href="#bQ"/><use transform="matrix(0.0087890625,0,0,0.0087890625,367.259765625,0)" xlink:href="#bR"/><use transform="matrix(0.0087890625,0,0,0.0087890625,378.0615234375,0)" xlink:href="#bB"/><use transform="matrix(0.0087890625,0,0,0.0087890625,388.86328125,0)" xlink:href="#bS"/><use transform="matrix(0.0087890625,0,0,0.0087890625,399.6650390625,0)" xlink:href="#bT"/><use transform="matrix(0.0087890625,0,0,0.0087890625,410.466796875,0)" xlink:href="#bJ"/><use transform="matrix(0.0087890625,0,0,0.0087890625,421.2685546875,0)" xlink:href="#bI"/><use transform="matrix(0.0087890625,0,0,0.0087890625,432.0703125,0)" xlink:href="#bU"/></g><path fill="#333" d="M232-93c-1 65-40 97-104 97C67 4 28-28 28-90v-158h33c8 89-33 224 67 224 102 0 64-133 71-224h33v155" id="bV"/><path fill="#333" d="M135-143c-3-34-86-38-87 0 15 53 115 12 119 90S17 21 10-45l28-5c4 36 97 45 98 0-10-56-113-15-118-90-4-57 82-63 122-42 12 7 21 19 24 35" id="bW"/><path fill="#333" d="M100-194c63 0 86 42 84 106H49c0 40 14 67 53 68 26 1 43-12 49-29l28 8c-11 28-37 45-77 45C44 4 14-33 15-96c1-61 26-98 85-98zm52 81c6-60-76-77-97-28-3 7-6 17-6 28h103" id="bX"/><path fill="#333" d="M114-163C36-179 61-72 57 0H25l-1-190h30c1 12-1 29 2 39 6-27 23-49 58-41v29" id="bY"/><g id="z"><use transform="matrix(0.05,0,0,0.05,0,0)" xlink:href="#bV"/><use transform="matrix(0.05,0,0,0.05,12.950000000000001,0)" xlink:href="#bW"/><use transform="matrix(0.05,0,0,0.05,21.950000000000003,0)" xlink:href="#bX"/><use transform="matrix(0.05,0,0,0.05,31.950000000000003,0)" xlink:href="#bY"/></g><path fill="#333" d="M96-169c-40 0-48 33-48 73s9 75 48 75c24 0 41-14 43-38l32 2c-6 37-31 61-74 61-59 0-76-41-82-99-10-93 101-131 147-64 4 7 5 14 7 22l-32 3c-4-21-16-35-41-35" id="bZ"/><path fill="#333" d="M24 0v-261h32V0H24" id="ca"/><path fill="#333" d="M24-231v-30h32v30H24zM24 0v-190h32V0H24" id="cb"/><path fill="#333" d="M143 0L79-87 56-68V0H24v-261h32v163l83-92h37l-77 82L181 0h-38" id="cc"/><g id="A"><use transform="matrix(0.05,0,0,0.05,0,0)" xlink:href="#bZ"/><use transform="matrix(0.05,0,0,0.05,9,0)" xlink:href="#ca"/><use transform="matrix(0.05,0,0,0.05,12.949999999999998,0)" xlink:href="#cb"/><use transform="matrix(0.05,0,0,0.05,16.9,0)" xlink:href="#bZ"/><use transform="matrix(0.05,0,0,0.05,25.899999999999995,0)" xlink:href="#cc"/><use transform="matrix(0.05,0,0,0.05,34.9,0)" xlink:href="#bW"/></g><path fill="#333" d="M117-194c89-4 53 116 60 194h-32v-121c0-31-8-49-39-48C34-167 62-67 57 0H25l-1-190h30c1 10-1 24 2 32 11-22 29-35 61-36" id="cd"/><g id="B"><use transform="matrix(0.05,0,0,0.05,0,0)" xlink:href="#ca"/><use transform="matrix(0.05,0,0,0.05,3.95,0)" xlink:href="#cb"/><use transform="matrix(0.05,0,0,0.05,7.9,0)" xlink:href="#cd"/><use transform="matrix(0.05,0,0,0.05,17.9,0)" xlink:href="#cc"/></g><path d="M67-125c0 54 23 88 75 88 28 0 53-7 68-21v-34h-60v-39h108v91C232-14 192 4 140 4 58 4 20-42 15-125 8-236 126-280 215-234c19 10 29 26 37 47l-47 15c-11-23-29-39-63-39-53 1-75 33-75 86" id="ce"/><path d="M136-208V0H84v-208H4v-40h212v40h-80" id="cf"/><g id="C"><use transform="matrix(0.04938271604938272,0,0,0.04938271604938272,0,0)" xlink:href="#ce"/><use transform="matrix(0.04938271604938272,0,0,0.04938271604938272,13.827160493827162,0)" xlink:href="#bf"/><use transform="matrix(0.04938271604938272,0,0,0.04938271604938272,25.679012345679016,0)" xlink:href="#cf"/></g><path d="M84 4C32 4 15-41 15-95c0-55 18-99 73-99 29 0 47 12 58 34l2-30h48l-1 265h-49V-32C136-9 114 4 84 4zm21-34c32 0 41-29 41-66 0-36-9-64-40-64-33 0-39 30-40 65 0 43 13 65 39 65" id="cg"/><g id="D"><use transform="matrix(0.04938271604938272,0,0,0.04938271604938272,0,0)" xlink:href="#bw"/><use transform="matrix(0.04938271604938272,0,0,0.04938271604938272,6.913580246913581,0)" xlink:href="#bl"/><use transform="matrix(0.04938271604938272,0,0,0.04938271604938272,16.790123456790127,0)" xlink:href="#cg"/><use transform="matrix(0.04938271604938272,0,0,0.04938271604938272,27.604938271604947,0)" xlink:href="#bx"/><use transform="matrix(0.04938271604938272,0,0,0.04938271604938272,38.41975308641976,0)" xlink:href="#bl"/><use transform="matrix(0.04938271604938272,0,0,0.04938271604938272,48.296296296296305,0)" xlink:href="#bk"/><use transform="matrix(0.04938271604938272,0,0,0.04938271604938272,58.17283950617284,0)" xlink:href="#bn"/></g><g id="E"><use transform="matrix(0.04938271604938272,0,0,0.04938271604938272,0,0)" xlink:href="#bn"/><use transform="matrix(0.04938271604938272,0,0,0.04938271604938272,5.8765432098765435,0)" xlink:href="#bo"/></g><g id="F"><use transform="matrix(0.0087890625,0,0,0.0087890625,0,0)" xlink:href="#bF"/><use transform="matrix(0.0087890625,0,0,0.0087890625,10.8017578125,0)" xlink:href="#bG"/><use transform="matrix(0.0087890625,0,0,0.0087890625,21.603515625,0)" xlink:href="#bJ"/><use transform="matrix(0.0087890625,0,0,0.0087890625,32.4052734375,0)" xlink:href="#bB"/><use transform="matrix(0.0087890625,0,0,0.0087890625,43.20703125,0)" xlink:href="#bH"/><use transform="matrix(0.0087890625,0,0,0.0087890625,54.0087890625,0)" xlink:href="#bG"/><use transform="matrix(0.0087890625,0,0,0.0087890625,64.810546875,0)" xlink:href="#bI"/><use transform="matrix(0.0087890625,0,0,0.0087890625,75.6123046875,0)" xlink:href="#bK"/><use transform="matrix(0.0087890625,0,0,0.0087890625,86.4140625,0)" xlink:href="#bI"/><use transform="matrix(0.0087890625,0,0,0.0087890625,97.2158203125,0)" xlink:href="#bL"/><use transform="matrix(0.0087890625,0,0,0.0087890625,108.017578125,0)" xlink:href="#bM"/><use transform="matrix(0.0087890625,0,0,0.0087890625,118.8193359375,0)" xlink:href="#bH"/><use transform="matrix(0.0087890625,0,0,0.0087890625,129.62109375,0)" xlink:href="#bD"/><use transform="matrix(0.0087890625,0,0,0.0087890625,140.4228515625,0)" xlink:href="#bJ"/><use transform="matrix(0.0087890625,0,0,0.0087890625,151.224609375,0)" xlink:href="#bG"/><use transform="matrix(0.0087890625,0,0,0.0087890625,162.0263671875,0)" xlink:href="#bN"/><use transform="matrix(0.0087890625,0,0,0.0087890625,172.828125,0)" xlink:href="#bP"/><use transform="matrix(0.0087890625,0,0,0.0087890625,183.6298828125,0)" xlink:href="#bQ"/><use transform="matrix(0.0087890625,0,0,0.0087890625,194.431640625,0)" xlink:href="#bR"/><use transform="matrix(0.0087890625,0,0,0.0087890625,205.2333984375,0)" xlink:href="#bB"/><use transform="matrix(0.0087890625,0,0,0.0087890625,216.03515625,0)" xlink:href="#bS"/><use transform="matrix(0.0087890625,0,0,0.0087890625,226.8369140625,0)" xlink:href="#bT"/><use transform="matrix(0.0087890625,0,0,0.0087890625,237.638671875,0)" xlink:href="#bJ"/><use transform="matrix(0.0087890625,0,0,0.0087890625,248.4404296875,0)" xlink:href="#bI"/><use transform="matrix(0.0087890625,0,0,0.0087890625,259.2421875,0)" xlink:href="#bU"/></g><path d="M240-174c0 40-23 61-54 70L253 0h-59l-57-94H76V0H24v-248c93 4 217-23 216 74zM76-134c48-2 112 12 112-38 0-48-66-32-112-35v73" id="ch"/><g id="G"><use transform="matrix(0.05,0,0,0.05,0,0)" xlink:href="#ch"/><use transform="matrix(0.05,0,0,0.05,12.950000000000001,0)" xlink:href="#bl"/><use transform="matrix(0.05,0,0,0.05,22.950000000000003,0)" xlink:href="#bn"/><use transform="matrix(0.05,0,0,0.05,28.900000000000002,0)" xlink:href="#bx"/><use transform="matrix(0.05,0,0,0.05,39.85,0)" xlink:href="#bw"/><use transform="matrix(0.05,0,0,0.05,46.85,0)" xlink:href="#bm"/><use transform="matrix(0.05,0,0,0.05,57.800000000000004,0)" xlink:href="#bk"/></g><g id="H"><use transform="matrix(0.05,0,0,0.05,0,0)" xlink:href="#bg"/><use transform="matrix(0.05,0,0,0.05,16,0)" xlink:href="#bh"/><use transform="matrix(0.05,0,0,0.05,26,0)" xlink:href="#bn"/><use transform="matrix(0.05,0,0,0.05,31.950000000000003,0)" xlink:href="#bq"/><use transform="matrix(0.05,0,0,0.05,41.95,0)" xlink:href="#bs"/><use transform="matrix(0.05,0,0,0.05,52.900000000000006,0)" xlink:href="#bi"/><use transform="matrix(0.05,0,0,0.05,57.900000000000006,0)" xlink:href="#bm"/><use transform="matrix(0.05,0,0,0.05,68.85000000000001,0)" xlink:href="#bt"/></g><g id="I"><use transform="matrix(0.05,0,0,0.05,0,0)" xlink:href="#bk"/><use transform="matrix(0.05,0,0,0.05,10,0)" xlink:href="#bl"/><use transform="matrix(0.05,0,0,0.05,20,0)" xlink:href="#bk"/><use transform="matrix(0.05,0,0,0.05,30,0)" xlink:href="#bk"/><use transform="matrix(0.05,0,0,0.05,40,0)" xlink:href="#bi"/><use transform="matrix(0.05,0,0,0.05,45,0)" xlink:href="#bo"/><use transform="matrix(0.05,0,0,0.05,55.95,0)" xlink:href="#bm"/></g><g id="J"><use transform="matrix(0.04938271604938272,0,0,0.04938271604938272,0,0)" xlink:href="#bk"/><use transform="matrix(0.04938271604938272,0,0,0.04938271604938272,9.876543209876544,0)" xlink:href="#bl"/><use transform="matrix(0.04938271604938272,0,0,0.04938271604938272,19.75308641975309,0)" xlink:href="#bk"/><use transform="matrix(0.04938271604938272,0,0,0.04938271604938272,29.629629629629633,0)" xlink:href="#bk"/><use transform="matrix(0.04938271604938272,0,0,0.04938271604938272,39.50617283950618,0)" xlink:href="#bi"/><use transform="matrix(0.04938271604938272,0,0,0.04938271604938272,44.44444444444445,0)" xlink:href="#bo"/><use transform="matrix(0.04938271604938272,0,0,0.04938271604938272,55.25925925925927,0)" xlink:href="#bm"/></g><path d="M121-226c-27-7-43 5-38 36h38v33H83V0H34v-157H6v-33h28c-9-59 32-81 87-68v32" id="ci"/><g id="K"><use transform="matrix(0.04938271604938272,0,0,0.04938271604938272,0,0)" xlink:href="#ci"/><use transform="matrix(0.04938271604938272,0,0,0.04938271604938272,5.8765432098765435,0)" xlink:href="#bo"/><use transform="matrix(0.04938271604938272,0,0,0.04938271604938272,16.691358024691358,0)" xlink:href="#bw"/></g><path d="M111-147c44 9 85 22 84 75-1 49-35 65-84 68v31H91V-4C40-5 12-27 5-72l45-8c4 24 15 38 41 40-2-22 4-51-2-69-39-10-76-22-76-72 0-47 35-60 78-63v-23h20v23c47 1 70 23 78 62l-46 7c-4-18-12-32-32-34v62zm-20-63c-33-4-45 46-13 54 4 1 8 2 13 4v-58zm20 170c39 5 53-51 15-60-7-2-7-2-15-4v64" id="cj"/><path d="M133 41v34c-50 4-88-6-87-53 0-46 9-101-40-98v-34c48 2 40-52 40-98-1-47 37-57 87-53v34c-79-14-6 124-77 134 73 11-4 147 77 134" id="ck"/><path d="M94-36c2 56 4 113-52 111H8V41C85 54 13-83 84-94c-39-5-38-51-36-97 1-27-12-38-40-36v-34c49-4 87 6 86 53s-8 101 41 98v34c-26 1-42 13-41 40" id="cl"/><g id="L"><use transform="matrix(0.04938271604938272,0,0,0.04938271604938272,0,0)" xlink:href="#cj"/><use transform="matrix(0.04938271604938272,0,0,0.04938271604938272,9.876543209876544,0)" xlink:href="#ck"/><use transform="matrix(0.04938271604938272,0,0,0.04938271604938272,16.790123456790127,0)" xlink:href="#bn"/><use transform="matrix(0.04938271604938272,0,0,0.04938271604938272,22.66666666666667,0)" xlink:href="#bo"/><use transform="matrix(0.04938271604938272,0,0,0.04938271604938272,33.48148148148149,0)" xlink:href="#bu"/><use transform="matrix(0.04938271604938272,0,0,0.04938271604938272,43.35802469135803,0)" xlink:href="#bl"/><use transform="matrix(0.04938271604938272,0,0,0.04938271604938272,53.23456790123457,0)" xlink:href="#bm"/><use transform="matrix(0.04938271604938272,0,0,0.04938271604938272,64.0493827160494,0)" xlink:href="#cl"/></g><g id="M"><use transform="matrix(0.04938271604938272,0,0,0.04938271604938272,0,0)" xlink:href="#bb"/><use transform="matrix(0.04938271604938272,0,0,0.04938271604938272,12.790123456790125,0)" xlink:href="#aO"/><use transform="matrix(0.04938271604938272,0,0,0.04938271604938272,22.66666666666667,0)" xlink:href="#bc"/><use transform="matrix(0.04938271604938272,0,0,0.04938271604938272,31.555555555555557,0)" xlink:href="#bd"/><use transform="matrix(0.04938271604938272,0,0,0.04938271604938272,41.4320987654321,0)" xlink:href="#aJ"/><path fill="#333" d="M-.9 1.23h53.1v1.3H-.9z"/></g><g id="N"><use transform="matrix(0.04938271604938272,0,0,0.04938271604938272,0,0)" xlink:href="#aT"/><use transform="matrix(0.04938271604938272,0,0,0.04938271604938272,5.8765432098765435,0)" xlink:href="#aG"/><use transform="matrix(0.04938271604938272,0,0,0.04938271604938272,18.666666666666668,0)" xlink:href="#aJ"/><use transform="matrix(0.04938271604938272,0,0,0.04938271604938272,28.543209876543212,0)" xlink:href="#aM"/><use transform="matrix(0.04938271604938272,0,0,0.04938271604938272,38.41975308641976,0)" xlink:href="#be"/><use transform="matrix(0.04938271604938272,0,0,0.04938271604938272,42.320987654320994,0)" xlink:href="#aR"/><use transform="matrix(0.04938271604938272,0,0,0.04938271604938272,51.209876543209894,0)" xlink:href="#aW"/><path fill="#333" d="M-.9 1.23h58.87v1.3H-.9z"/></g><g id="O"><use transform="matrix(0.05,0,0,0.05,0,0)" xlink:href="#bw"/><use transform="matrix(0.05,0,0,0.05,7,0)" xlink:href="#bl"/><use transform="matrix(0.05,0,0,0.05,17,0)" xlink:href="#bv"/><use transform="matrix(0.05,0,0,0.05,27.950000000000003,0)" xlink:href="#bi"/><use transform="matrix(0.05,0,0,0.05,32.95,0)" xlink:href="#bw"/><use transform="matrix(0.05,0,0,0.05,39.95,0)" xlink:href="#bl"/><use transform="matrix(0.05,0,0,0.05,49.95,0)" xlink:href="#bq"/><use transform="matrix(0.05,0,0,0.05,59.95,0)" xlink:href="#bn"/></g><g id="P"><use transform="matrix(0.05,0,0,0.05,0,0)" xlink:href="#bx"/><use transform="matrix(0.05,0,0,0.05,10.950000000000001,0)" xlink:href="#bk"/><use transform="matrix(0.05,0,0,0.05,20.950000000000003,0)" xlink:href="#bl"/><use transform="matrix(0.05,0,0,0.05,30.950000000000003,0)" xlink:href="#bw"/></g><g id="Q"><use transform="matrix(0.05,0,0,0.05,0,0)" xlink:href="#bn"/><use transform="matrix(0.05,0,0,0.05,5.95,0)" xlink:href="#bo"/></g><path d="M123 10C108 53 80 86 19 72V37c35 8 53-11 59-39L3-190h52l48 148c12-52 28-100 44-148h51" id="cm"/><g id="R"><use transform="matrix(0.05,0,0,0.05,0,0)" xlink:href="#bk"/><use transform="matrix(0.05,0,0,0.05,10,0)" xlink:href="#bx"/><use transform="matrix(0.05,0,0,0.05,20.950000000000003,0)" xlink:href="#bg"/><use transform="matrix(0.05,0,0,0.05,36.95,0)" xlink:href="#bg"/><use transform="matrix(0.05,0,0,0.05,52.95,0)" xlink:href="#bh"/><use transform="matrix(0.05,0,0,0.05,62.95,0)" xlink:href="#bw"/><use transform="matrix(0.05,0,0,0.05,69.95,0)" xlink:href="#cm"/></g><g id="S"><use transform="matrix(0.05,0,0,0.05,0,0)" xlink:href="#bp"/><use transform="matrix(0.05,0,0,0.05,10.950000000000001,0)" xlink:href="#bh"/><use transform="matrix(0.05,0,0,0.05,20.950000000000003,0)" xlink:href="#bt"/><use transform="matrix(0.05,0,0,0.05,31.900000000000006,0)" xlink:href="#bl"/></g><path d="M238-95c0 69-44 99-111 99C63 4 22-25 22-93v-155h51v151c-1 38 19 59 55 60 90 1 49-130 58-211h52v153" id="cn"/><g id="T"><use transform="matrix(0.04938271604938272,0,0,0.04938271604938272,0,0)" xlink:href="#cn"/><use transform="matrix(0.04938271604938272,0,0,0.04938271604938272,12.790123456790125,0)" xlink:href="#bk"/><use transform="matrix(0.04938271604938272,0,0,0.04938271604938272,22.66666666666667,0)" xlink:href="#bl"/><use transform="matrix(0.04938271604938272,0,0,0.04938271604938272,32.543209876543216,0)" xlink:href="#bw"/></g><path d="M135-194c52 0 70 43 70 98 0 56-19 99-73 100-30 1-46-15-58-35L72 0H24l1-261h50v104c11-23 29-37 60-37zM114-30c31 0 40-27 40-66 0-37-7-63-39-63s-41 28-41 65c0 36 8 64 40 64" id="co"/><g id="U"><use transform="matrix(0.04938271604938272,0,0,0.04938271604938272,0,0)" xlink:href="#bk"/><use transform="matrix(0.04938271604938272,0,0,0.04938271604938272,9.876543209876544,0)" xlink:href="#bx"/><use transform="matrix(0.04938271604938272,0,0,0.04938271604938272,20.69135802469136,0)" xlink:href="#co"/><use transform="matrix(0.04938271604938272,0,0,0.04938271604938272,31.506172839506174,0)" xlink:href="#bg"/><use transform="matrix(0.04938271604938272,0,0,0.04938271604938272,47.308641975308646,0)" xlink:href="#bi"/><use transform="matrix(0.04938271604938272,0,0,0.04938271604938272,52.24691358024692,0)" xlink:href="#bn"/><use transform="matrix(0.04938271604938272,0,0,0.04938271604938272,58.12345679012346,0)" xlink:href="#bk"/></g><path d="M24-248c93 1 206-16 204 79-1 75-69 88-152 82V0H24v-248zm52 121c47 0 100 7 100-41 0-47-54-39-100-39v80" id="cp"/><g id="V"><use transform="matrix(0.05,0,0,0.05,0,0)" xlink:href="#cp"/><use transform="matrix(0.05,0,0,0.05,12,0)" xlink:href="#cn"/><use transform="matrix(0.05,0,0,0.05,24.950000000000003,0)" xlink:href="#cf"/></g><g id="W"><use transform="matrix(0.05,0,0,0.05,0,0)" xlink:href="#bx"/><use transform="matrix(0.05,0,0,0.05,10.950000000000001,0)" xlink:href="#bp"/><use transform="matrix(0.05,0,0,0.05,21.900000000000002,0)" xlink:href="#bv"/><use transform="matrix(0.05,0,0,0.05,32.85,0)" xlink:href="#bh"/><use transform="matrix(0.05,0,0,0.05,42.85,0)" xlink:href="#bn"/><use transform="matrix(0.05,0,0,0.05,48.800000000000004,0)" xlink:href="#bl"/><use transform="matrix(0.05,0,0,0.05,58.800000000000004,0)" xlink:href="#bv"/></g><g id="X"><use transform="matrix(0.05,0,0,0.05,0,0)" xlink:href="#bh"/><use transform="matrix(0.05,0,0,0.05,10,0)" xlink:href="#bm"/><use transform="matrix(0.05,0,0,0.05,20.950000000000003,0)" xlink:href="#bk"/><use transform="matrix(0.05,0,0,0.05,30.950000000000003,0)" xlink:href="#br"/><use transform="matrix(0.05,0,0,0.05,44.95,0)" xlink:href="#bl"/><use transform="matrix(0.05,0,0,0.05,54.95,0)" xlink:href="#bw"/><use transform="matrix(0.05,0,0,0.05,61.95,0)" xlink:href="#bk"/></g><g id="Y"><use transform="matrix(0.05,0,0,0.05,0,0)" xlink:href="#bh"/><use transform="matrix(0.05,0,0,0.05,10,0)" xlink:href="#bp"/><use transform="matrix(0.05,0,0,0.05,20.950000000000003,0)" xlink:href="#bp"/><use transform="matrix(0.05,0,0,0.05,31.900000000000006,0)" xlink:href="#bj"/><use transform="matrix(0.05,0,0,0.05,36.900000000000006,0)" xlink:href="#bi"/><use transform="matrix(0.05,0,0,0.05,41.900000000000006,0)" xlink:href="#bq"/><use transform="matrix(0.05,0,0,0.05,51.900000000000006,0)" xlink:href="#bh"/><use transform="matrix(0.05,0,0,0.05,61.900000000000006,0)" xlink:href="#bn"/><use transform="matrix(0.05,0,0,0.05,67.85000000000001,0)" xlink:href="#bi"/><use transform="matrix(0.05,0,0,0.05,72.85000000000001,0)" xlink:href="#bo"/><use transform="matrix(0.05,0,0,0.05,83.80000000000001,0)" xlink:href="#bm"/></g><path d="M140-251c80 0 125 45 125 126S219 4 139 4C58 4 15-44 15-125s44-126 125-126zm-1 214c52 0 73-35 73-88 0-50-21-86-72-86-52 0-73 35-73 86s22 88 72 88" id="cq"/><path d="M169-182c-1-43-94-46-97-3 18 66 151 10 154 114 3 95-165 93-204 36-6-8-10-19-12-30l50-8c3 46 112 56 116 5-17-69-150-10-154-114-4-87 153-88 188-35 5 8 8 18 10 28" id="cr"/><g id="Z"><use transform="matrix(0.05,0,0,0.05,0,0)" xlink:href="#cp"/><use transform="matrix(0.05,0,0,0.05,12,0)" xlink:href="#cq"/><use transform="matrix(0.05,0,0,0.05,26,0)" xlink:href="#cr"/><use transform="matrix(0.05,0,0,0.05,38,0)" xlink:href="#cf"/></g><g id="aa"><use transform="matrix(0.05,0,0,0.05,0,0)" xlink:href="#bw"/><use transform="matrix(0.05,0,0,0.05,7,0)" xlink:href="#bl"/><use transform="matrix(0.05,0,0,0.05,17,0)" xlink:href="#cg"/><use transform="matrix(0.05,0,0,0.05,27.950000000000003,0)" xlink:href="#bx"/><use transform="matrix(0.05,0,0,0.05,38.900000000000006,0)" xlink:href="#bl"/><use transform="matrix(0.05,0,0,0.05,48.900000000000006,0)" xlink:href="#bk"/><use transform="matrix(0.05,0,0,0.05,58.900000000000006,0)" xlink:href="#bn"/></g><path d="M4 7l51-268h42L46 7H4" id="cs"/><path d="M14-72v-43h91v43H14" id="ct"/><g id="ab"><use transform="matrix(0.05,0,0,0.05,0,0)" xlink:href="#cs"/><use transform="matrix(0.05,0,0,0.05,5,0)" xlink:href="#bw"/><use transform="matrix(0.05,0,0,0.05,12,0)" xlink:href="#bl"/><use transform="matrix(0.05,0,0,0.05,22,0)" xlink:href="#bn"/><use transform="matrix(0.05,0,0,0.05,27.950000000000003,0)" xlink:href="#bx"/><use transform="matrix(0.05,0,0,0.05,38.9,0)" xlink:href="#bw"/><use transform="matrix(0.05,0,0,0.05,45.9,0)" xlink:href="#bm"/><use transform="matrix(0.05,0,0,0.05,56.85,0)" xlink:href="#bi"/><use transform="matrix(0.05,0,0,0.05,61.85,0)" xlink:href="#bm"/><use transform="matrix(0.05,0,0,0.05,72.8,0)" xlink:href="#bt"/><use transform="matrix(0.05,0,0,0.05,83.75,0)" xlink:href="#ct"/><use transform="matrix(0.05,0,0,0.05,89.7,0)" xlink:href="#bx"/><use transform="matrix(0.05,0,0,0.05,100.65,0)" xlink:href="#bk"/><use transform="matrix(0.05,0,0,0.05,110.65,0)" xlink:href="#bl"/><use transform="matrix(0.05,0,0,0.05,120.65,0)" xlink:href="#bw"/></g><g id="ac"><use transform="matrix(0.05,0,0,0.05,0,0)" xlink:href="#bw"/><use transform="matrix(0.05,0,0,0.05,7,0)" xlink:href="#bl"/><use transform="matrix(0.05,0,0,0.05,17,0)" xlink:href="#bn"/><use transform="matrix(0.05,0,0,0.05,22.95,0)" xlink:href="#bx"/><use transform="matrix(0.05,0,0,0.05,33.9,0)" xlink:href="#bw"/><use transform="matrix(0.05,0,0,0.05,40.9,0)" xlink:href="#bm"/><use transform="matrix(0.05,0,0,0.05,51.85,0)" xlink:href="#bk"/></g><g id="ad"><use transform="matrix(0.05,0,0,0.05,0,0)" xlink:href="#bn"/><use transform="matrix(0.05,0,0,0.05,5.95,0)" xlink:href="#bo"/><use transform="matrix(0.05,0,0,0.05,16.900000000000002,0)" xlink:href="#bu"/><use transform="matrix(0.05,0,0,0.05,26.900000000000002,0)" xlink:href="#bl"/><use transform="matrix(0.05,0,0,0.05,36.900000000000006,0)" xlink:href="#bm"/></g><path d="M175 0L67-191c6 58 2 128 3 191H24v-248h59L193-55c-6-58-2-129-3-193h46V0h-61" id="cu"/><g id="ae"><use transform="matrix(0.05,0,0,0.05,0,0)" xlink:href="#cu"/><use transform="matrix(0.05,0,0,0.05,12.950000000000001,0)" xlink:href="#bl"/><use transform="matrix(0.05,0,0,0.05,22.950000000000003,0)" xlink:href="#br"/></g><g id="af"><use transform="matrix(0.05,0,0,0.05,0,0)" xlink:href="#bk"/><use transform="matrix(0.05,0,0,0.05,10,0)" xlink:href="#bl"/><use transform="matrix(0.05,0,0,0.05,20,0)" xlink:href="#bk"/><use transform="matrix(0.05,0,0,0.05,30,0)" xlink:href="#bk"/><use transform="matrix(0.05,0,0,0.05,40,0)" xlink:href="#bi"/><use transform="matrix(0.05,0,0,0.05,45,0)" xlink:href="#bo"/><use transform="matrix(0.05,0,0,0.05,55.95,0)" xlink:href="#bm"/></g><g id="ag"><use transform="matrix(0.05,0,0,0.05,0,0)" xlink:href="#bq"/><use transform="matrix(0.05,0,0,0.05,10,0)" xlink:href="#bw"/><use transform="matrix(0.05,0,0,0.05,17,0)" xlink:href="#bl"/><use transform="matrix(0.05,0,0,0.05,27,0)" xlink:href="#bh"/><use transform="matrix(0.05,0,0,0.05,37,0)" xlink:href="#bn"/><use transform="matrix(0.05,0,0,0.05,42.95,0)" xlink:href="#bl"/><use transform="matrix(0.05,0,0,0.05,52.95,0)" xlink:href="#bv"/></g><g id="ah"><use transform="matrix(0.05,0,0,0.05,0,0)" xlink:href="#ci"/><use transform="matrix(0.05,0,0,0.05,5.95,0)" xlink:href="#bo"/><use transform="matrix(0.05,0,0,0.05,16.900000000000002,0)" xlink:href="#bw"/></g><g id="ai"><use transform="matrix(0.05,0,0,0.05,0,0)" xlink:href="#bx"/><use transform="matrix(0.05,0,0,0.05,10.950000000000001,0)" xlink:href="#bk"/><use transform="matrix(0.05,0,0,0.05,20.950000000000003,0)" xlink:href="#bl"/><use transform="matrix(0.05,0,0,0.05,30.950000000000003,0)" xlink:href="#bw"/></g><g id="aj"><use transform="matrix(0.05,0,0,0.05,0,0)" xlink:href="#bh"/><use transform="matrix(0.05,0,0,0.05,10,0)" xlink:href="#bn"/></g><g id="ak"><use transform="matrix(0.05,0,0,0.05,0,0)" xlink:href="#cj"/><use transform="matrix(0.05,0,0,0.05,10,0)" xlink:href="#ck"/><use transform="matrix(0.05,0,0,0.05,17,0)" xlink:href="#bn"/><use transform="matrix(0.05,0,0,0.05,22.95,0)" xlink:href="#bo"/><use transform="matrix(0.05,0,0,0.05,33.9,0)" xlink:href="#bu"/><use transform="matrix(0.05,0,0,0.05,43.9,0)" xlink:href="#bl"/><use transform="matrix(0.05,0,0,0.05,53.900000000000006,0)" xlink:href="#bm"/><use transform="matrix(0.05,0,0,0.05,64.85,0)" xlink:href="#cl"/></g><g id="al"><use transform="matrix(0.05,0,0,0.05,0,0)" xlink:href="#br"/><use transform="matrix(0.05,0,0,0.05,14,0)" xlink:href="#bi"/><use transform="matrix(0.05,0,0,0.05,19,0)" xlink:href="#bn"/><use transform="matrix(0.05,0,0,0.05,24.95,0)" xlink:href="#bs"/></g><g id="am"><use transform="matrix(0.05,0,0,0.05,0,0)" xlink:href="#bj"/><use transform="matrix(0.05,0,0,0.05,5,0)" xlink:href="#bo"/><use transform="matrix(0.05,0,0,0.05,15.950000000000001,0)" xlink:href="#bm"/><use transform="matrix(0.05,0,0,0.05,26.900000000000002,0)" xlink:href="#bt"/><use transform="matrix(0.05,0,0,0.05,37.85,0)" xlink:href="#bl"/><use transform="matrix(0.05,0,0,0.05,47.85,0)" xlink:href="#bw"/></g><path d="M24 0v-248h52v208h133V0H24" id="cv"/><g id="an"><use transform="matrix(0.05,0,0,0.05,0,0)" xlink:href="#cf"/><use transform="matrix(0.05,0,0,0.05,10.950000000000001,0)" xlink:href="#cf"/><use transform="matrix(0.05,0,0,0.05,21.900000000000002,0)" xlink:href="#cv"/></g><path d="M67-125c0 53 21 87 73 88 37 1 54-22 65-47l45 17C233-25 199 4 140 4 58 4 20-42 15-125 8-235 124-281 211-232c18 10 29 29 36 50l-46 12c-8-25-30-41-62-41-52 0-71 34-72 86" id="cw"/><g id="ao"><use transform="matrix(0.04938271604938272,0,0,0.04938271604938272,0,0)" xlink:href="#cw"/><use transform="matrix(0.04938271604938272,0,0,0.04938271604938272,12.790123456790125,0)" xlink:href="#bo"/><use transform="matrix(0.04938271604938272,0,0,0.04938271604938272,23.60493827160494,0)" xlink:href="#bp"/><use transform="matrix(0.04938271604938272,0,0,0.04938271604938272,34.41975308641975,0)" xlink:href="#cm"/></g><g id="ap"><use transform="matrix(0.04938271604938272,0,0,0.04938271604938272,0,0)" xlink:href="#bn"/><use transform="matrix(0.04938271604938272,0,0,0.04938271604938272,5.8765432098765435,0)" xlink:href="#bo"/></g><path d="M62-158H24l-5-90h48" id="cx"/><g id="aq"><use transform="matrix(0.04938271604938272,0,0,0.04938271604938272,0,0)" xlink:href="#bx"/><use transform="matrix(0.04938271604938272,0,0,0.04938271604938272,10.814814814814815,0)" xlink:href="#bk"/><use transform="matrix(0.04938271604938272,0,0,0.04938271604938272,20.69135802469136,0)" xlink:href="#bl"/><use transform="matrix(0.04938271604938272,0,0,0.04938271604938272,30.567901234567906,0)" xlink:href="#bw"/><use transform="matrix(0.04938271604938272,0,0,0.04938271604938272,37.48148148148149,0)" xlink:href="#cx"/><use transform="matrix(0.04938271604938272,0,0,0.04938271604938272,41.67901234567902,0)" xlink:href="#bk"/></g><g id="ar"><use transform="matrix(0.04938271604938272,0,0,0.04938271604938272,0,0)" xlink:href="#bk"/><use transform="matrix(0.04938271604938272,0,0,0.04938271604938272,9.876543209876544,0)" xlink:href="#bl"/><use transform="matrix(0.04938271604938272,0,0,0.04938271604938272,19.75308641975309,0)" xlink:href="#bk"/><use transform="matrix(0.04938271604938272,0,0,0.04938271604938272,29.629629629629633,0)" xlink:href="#bk"/><use transform="matrix(0.04938271604938272,0,0,0.04938271604938272,39.50617283950618,0)" xlink:href="#bi"/><use transform="matrix(0.04938271604938272,0,0,0.04938271604938272,44.44444444444445,0)" xlink:href="#bo"/><use transform="matrix(0.04938271604938272,0,0,0.04938271604938272,55.25925925925927,0)" xlink:href="#bm"/></g><g id="as"><use transform="matrix(0.04938271604938272,0,0,0.04938271604938272,0,0)" xlink:href="#bh"/><use transform="matrix(0.04938271604938272,0,0,0.04938271604938272,9.876543209876544,0)" xlink:href="#bn"/></g><g id="at"><use transform="matrix(0.04938271604938272,0,0,0.04938271604938272,0,0)" xlink:href="#cj"/><use transform="matrix(0.04938271604938272,0,0,0.04938271604938272,9.876543209876544,0)" xlink:href="#ck"/><use transform="matrix(0.04938271604938272,0,0,0.04938271604938272,16.790123456790127,0)" xlink:href="#bw"/><use transform="matrix(0.04938271604938272,0,0,0.04938271604938272,23.70370370370371,0)" xlink:href="#bl"/><use transform="matrix(0.04938271604938272,0,0,0.04938271604938272,33.580246913580254,0)" xlink:href="#cg"/><use transform="matrix(0.04938271604938272,0,0,0.04938271604938272,44.39506172839507,0)" xlink:href="#bx"/><use transform="matrix(0.04938271604938272,0,0,0.04938271604938272,55.209876543209894,0)" xlink:href="#bl"/><use transform="matrix(0.04938271604938272,0,0,0.04938271604938272,65.08641975308643,0)" xlink:href="#bk"/><use transform="matrix(0.04938271604938272,0,0,0.04938271604938272,74.96296296296298,0)" xlink:href="#bn"/><use transform="matrix(0.04938271604938272,0,0,0.04938271604938272,80.83950617283952,0)" xlink:href="#by"/><use transform="matrix(0.04938271604938272,0,0,0.04938271604938272,85.7777777777778,0)" xlink:href="#cm"/><use transform="matrix(0.04938271604938272,0,0,0.04938271604938272,95.65432098765434,0)" xlink:href="#bh"/><use transform="matrix(0.04938271604938272,0,0,0.04938271604938272,105.53086419753089,0)" xlink:href="#bw"/><use transform="matrix(0.04938271604938272,0,0,0.04938271604938272,111.45679012345683,0)" xlink:href="#by"/><use transform="matrix(0.04938271604938272,0,0,0.04938271604938272,116.39506172839509,0)" xlink:href="#bi"/><use transform="matrix(0.04938271604938272,0,0,0.04938271604938272,121.33333333333337,0)" xlink:href="#bv"/><use transform="matrix(0.04938271604938272,0,0,0.04938271604938272,132.14814814814818,0)" xlink:href="#cl"/></g><path d="M67-93c0 74 22 123 53 168H70C40 30 18-18 18-93s22-123 52-168h50c-32 44-53 94-53 168" id="cy"/><g id="au"><use transform="matrix(0.04938271604938272,0,0,0.04938271604938272,0,0)" xlink:href="#cy"/><use transform="matrix(0.04938271604938272,0,0,0.04938271604938272,5.8765432098765435,0)" xlink:href="#bk"/><use transform="matrix(0.04938271604938272,0,0,0.04938271604938272,15.753086419753087,0)" xlink:href="#bl"/><use transform="matrix(0.04938271604938272,0,0,0.04938271604938272,25.629629629629633,0)" xlink:href="#bk"/><use transform="matrix(0.04938271604938272,0,0,0.04938271604938272,35.50617283950618,0)" xlink:href="#bk"/><use transform="matrix(0.04938271604938272,0,0,0.04938271604938272,45.38271604938272,0)" xlink:href="#bi"/><use transform="matrix(0.04938271604938272,0,0,0.04938271604938272,50.320987654320994,0)" xlink:href="#bo"/><use transform="matrix(0.04938271604938272,0,0,0.04938271604938272,61.13580246913581,0)" xlink:href="#bm"/></g><path d="M24 0v-248h52V0H24" id="cz"/><path d="M24-248c120-7 223 5 221 122C244-46 201 0 124 0H24v-248zM76-40c74 7 117-18 117-86 0-67-45-88-117-82v168" id="cA"/><path d="M102-93c0 74-22 123-52 168H0C30 29 54-18 53-93c0-74-22-123-53-168h50c30 45 52 94 52 168" id="cB"/><g id="av"><use transform="matrix(0.04938271604938272,0,0,0.04938271604938272,0,0)" xlink:href="#cz"/><use transform="matrix(0.04938271604938272,0,0,0.04938271604938272,4.938271604938272,0)" xlink:href="#cA"/><use transform="matrix(0.04938271604938272,0,0,0.04938271604938272,17.7283950617284,0)" xlink:href="#cB"/></g><path fill="#333" d="M140-251c81 0 123 46 123 126C263-53 228-8 163 1c7 30 30 48 69 40v23c-55 16-95-15-103-61C56-3 17-48 17-125c0-80 42-126 123-126zm0 227c63 0 89-41 89-101s-29-99-89-99c-61 0-89 39-89 99S79-25 140-24" id="cC"/><path fill="#333" d="M84 4C-5 8 30-112 23-190h32v120c0 31 7 50 39 49 72-2 45-101 50-169h31l1 190h-30c-1-10 1-25-2-33-11 22-28 36-60 37" id="cD"/><path fill="#333" d="M179-190L93 31C79 59 56 82 12 73V49c39 6 53-20 64-50L1-190h34L92-34l54-156h33" id="cE"/><g id="aw"><use transform="matrix(0.05,0,0,0.05,0,0)" xlink:href="#cC"/><use transform="matrix(0.05,0,0,0.05,14,0)" xlink:href="#cD"/><use transform="matrix(0.05,0,0,0.05,24,0)" xlink:href="#bX"/><use transform="matrix(0.05,0,0,0.05,34,0)" xlink:href="#bY"/><use transform="matrix(0.05,0,0,0.05,39.95,0)" xlink:href="#cE"/></g><path fill="#333" d="M101-234c-31-9-42 10-38 44h38v23H63V0H32v-167H5v-23h27c-7-52 17-82 69-68v24" id="cF"/><path fill="#333" d="M100-194c62-1 85 37 85 99 1 63-27 99-86 99S16-35 15-95c0-66 28-99 85-99zM99-20c44 1 53-31 53-75 0-43-8-75-51-75s-53 32-53 75 10 74 51 75" id="cG"/><g id="ax"><use transform="matrix(0.05,0,0,0.05,0,0)" xlink:href="#cF"/><use transform="matrix(0.05,0,0,0.05,5,0)" xlink:href="#cG"/><use transform="matrix(0.05,0,0,0.05,15,0)" xlink:href="#bY"/></g><path fill="#333" d="M47-170H22l-4-78h33" id="cH"/><g id="ay"><use transform="matrix(0.05,0,0,0.05,0,0)" xlink:href="#cD"/><use transform="matrix(0.05,0,0,0.05,10,0)" xlink:href="#bW"/><use transform="matrix(0.05,0,0,0.05,19,0)" xlink:href="#bX"/><use transform="matrix(0.05,0,0,0.05,29,0)" xlink:href="#bY"/><use transform="matrix(0.05,0,0,0.05,34.95,0)" xlink:href="#cH"/><use transform="matrix(0.05,0,0,0.05,38.35,0)" xlink:href="#bW"/></g><path fill="#333" d="M141-36C126-15 110 5 73 4 37 3 15-17 15-53c-1-64 63-63 125-63 3-35-9-54-41-54-24 1-41 7-42 31l-33-3c5-37 33-52 76-52 45 0 72 20 72 64v82c-1 20 7 32 28 27v20c-31 9-61-2-59-35zM48-53c0 20 12 33 32 33 41-3 63-29 60-74-43 2-92-5-92 41" id="cI"/><path fill="#333" d="M206 0h-36l-40-164L89 0H53L-1-190h32L70-26l43-164h34l41 164 42-164h31" id="cJ"/><g id="az"><use transform="matrix(0.05,0,0,0.05,0,0)" xlink:href="#cI"/><use transform="matrix(0.05,0,0,0.05,10,0)" xlink:href="#cd"/><use transform="matrix(0.05,0,0,0.05,20,0)" xlink:href="#bW"/><use transform="matrix(0.05,0,0,0.05,29,0)" xlink:href="#cJ"/><use transform="matrix(0.05,0,0,0.05,41.95,0)" xlink:href="#bX"/><use transform="matrix(0.05,0,0,0.05,51.95,0)" xlink:href="#bY"/><use transform="matrix(0.05,0,0,0.05,57.900000000000006,0)" xlink:href="#bW"/></g><path fill="#333" d="M59-47c-2 24 18 29 38 22v24C64 9 27 4 27-40v-127H5v-23h24l9-43h21v43h35v23H59v120" id="cK"/><g id="aA"><use transform="matrix(0.05,0,0,0.05,0,0)" xlink:href="#bY"/><use transform="matrix(0.05,0,0,0.05,5.95,0)" xlink:href="#bX"/><use transform="matrix(0.05,0,0,0.05,15.949999999999998,0)" xlink:href="#cK"/><use transform="matrix(0.05,0,0,0.05,20.95,0)" xlink:href="#cD"/><use transform="matrix(0.05,0,0,0.05,30.950000000000003,0)" xlink:href="#bY"/><use transform="matrix(0.05,0,0,0.05,36.9,0)" xlink:href="#cd"/><use transform="matrix(0.05,0,0,0.05,46.9,0)" xlink:href="#bW"/></g><path fill="#333" d="M85-194c31 0 48 13 60 33l-1-100h32l1 261h-30c-2-10 0-23-3-31C134-8 116 4 85 4 32 4 16-35 15-94c0-66 23-100 70-100zm9 24c-40 0-46 34-46 75 0 40 6 74 45 74 42 0 51-32 51-76 0-42-9-74-50-73" id="cL"/><g id="aB"><use transform="matrix(0.05,0,0,0.05,0,0)" xlink:href="#cL"/><use transform="matrix(0.05,0,0,0.05,10,0)" xlink:href="#cI"/><use transform="matrix(0.05,0,0,0.05,20,0)" xlink:href="#cK"/><use transform="matrix(0.05,0,0,0.05,25,0)" xlink:href="#cI"/></g><path fill="#333" d="M85 4C-2 5 27-109 22-190h50c7 57-23 150 33 157 60-5 35-97 40-157h50l1 190h-47c-2-12 1-28-3-38-12 25-28 42-61 42" id="cM"/><path fill="#333" d="M135-194c53 0 70 44 70 98 0 56-19 98-73 100-31 1-45-17-59-34 3 33 2 69 2 105H25l-1-265h48c2 10 0 23 3 31 11-24 29-35 60-35zM114-30c33 0 39-31 40-66 0-38-9-64-40-64-56 0-55 130 0 130" id="cN"/><path fill="#333" d="M88-194c31-1 46 15 58 34l-1-101h50l1 261h-48c-2-10 0-23-3-31C134-8 116 4 84 4 32 4 16-41 15-95c0-56 19-97 73-99zm17 164c33 0 40-30 41-66 1-37-9-64-41-64s-38 30-39 65c0 43 13 65 39 65" id="cO"/><path fill="#333" d="M133-34C117-15 103 5 69 4 32 3 11-16 11-54c-1-60 55-63 116-61 1-26-3-47-28-47-18 1-26 9-28 27l-52-2c7-38 36-58 82-57s74 22 75 68l1 82c-1 14 12 18 25 15v27c-30 8-71 5-69-32zm-48 3c29 0 43-24 42-57-32 0-66-3-65 30 0 17 8 27 23 27" id="cP"/><path fill="#333" d="M115-3C79 11 28 4 28-45v-112H4v-33h27l15-45h31v45h36v33H77v99c-1 23 16 31 38 25v30" id="cQ"/><path fill="#333" d="M185-48c-13 30-37 53-82 52C43 2 14-33 14-96s30-98 90-98c62 0 83 45 84 108H66c0 31 8 55 39 56 18 0 30-7 34-22zm-45-69c5-46-57-63-70-21-2 6-4 13-4 21h74" id="cR"/><g id="aC"><use transform="matrix(0.05,0,0,0.05,0,0)" xlink:href="#cM"/><use transform="matrix(0.05,0,0,0.05,10.950000000000001,0)" xlink:href="#cN"/><use transform="matrix(0.05,0,0,0.05,21.900000000000002,0)" xlink:href="#cO"/><use transform="matrix(0.05,0,0,0.05,32.85,0)" xlink:href="#cP"/><use transform="matrix(0.05,0,0,0.05,42.85,0)" xlink:href="#cQ"/><use transform="matrix(0.05,0,0,0.05,48.800000000000004,0)" xlink:href="#cR"/></g><path fill="#333" d="M135-194c87-1 58 113 63 194h-50c-7-57 23-157-34-157-59 0-34 97-39 157H25l-1-190h47c2 12-1 28 3 38 12-26 28-41 61-42" id="cS"/><path fill="#333" d="M135-150c-39-12-60 13-60 57V0H25l-1-190h47c2 13-1 29 3 40 6-28 27-53 61-41v41" id="cT"/><path fill="#333" d="M123 10C108 53 80 86 19 72V37c35 8 53-11 59-39L3-190h52l48 148c12-52 28-100 44-148h51" id="cU"/><g id="aD"><use transform="matrix(0.05,0,0,0.05,0,0)" xlink:href="#cR"/><use transform="matrix(0.05,0,0,0.05,10,0)" xlink:href="#cS"/><use transform="matrix(0.05,0,0,0.05,20.950000000000003,0)" xlink:href="#cQ"/><use transform="matrix(0.05,0,0,0.05,26.900000000000002,0)" xlink:href="#cT"/><use transform="matrix(0.05,0,0,0.05,33.900000000000006,0)" xlink:href="#cU"/></g><path fill="#333" d="M25-224v-37h50v37H25zM25 0v-190h50V0H25" id="cV"/><g id="aE"><use transform="matrix(0.05,0,0,0.05,0,0)" xlink:href="#cV"/><use transform="matrix(0.05,0,0,0.05,5,0)" xlink:href="#cS"/></g><path fill="#333" d="M24-248c120-7 223 5 221 122C244-46 201 0 124 0H24v-248zM76-40c74 7 117-18 117-86 0-67-45-88-117-82v168" id="cW"/><path fill="#333" d="M182-130c37 4 62 22 62 59C244 23 116-4 24 0v-248c84 5 203-23 205 63 0 31-19 50-47 55zM76-148c40-3 101 13 101-30 0-44-60-28-101-31v61zm0 110c48-3 116 14 116-37 0-48-69-32-116-35v72" id="cX"/><g id="aF"><use transform="matrix(0.05,0,0,0.05,0,0)" xlink:href="#cW"/><use transform="matrix(0.05,0,0,0.05,12.950000000000001,0)" xlink:href="#cX"/></g></defs></g></svg>
